<mxfile host="app.diagrams.net" modified="2024-06-06T10:23:40.540Z" agent="Mozilla/5.0 (Windows NT 10.0; Win64; x64) AppleWebKit/537.36 (KHTML, like Gecko) Chrome/125.0.0.0 Safari/537.36" etag="aPK-KAATs1FWPquM6MkZ" version="24.4.15" type="github">
  <diagram id="R2lEEEUBdFMjLlhIrx00" name="Page-1">
    <mxGraphModel dx="2805" dy="1649" grid="1" gridSize="10" guides="1" tooltips="1" connect="1" arrows="1" fold="1" page="1" pageScale="1" pageWidth="850" pageHeight="1100" math="0" shadow="0" extFonts="Permanent Marker^https://fonts.googleapis.com/css?family=Permanent+Marker">
      <root>
        <mxCell id="0" />
        <mxCell id="1" parent="0" />
        <mxCell id="M6uvEseLIlFZfIpXj4Gl-4" value="&amp;nbsp; id&amp;nbsp;&amp;nbsp;" style="ellipse;whiteSpace=wrap;html=1;align=center;fontStyle=4;" parent="1" vertex="1">
          <mxGeometry x="-440" y="350" width="100" height="40" as="geometry" />
        </mxCell>
        <mxCell id="M6uvEseLIlFZfIpXj4Gl-44" style="edgeStyle=orthogonalEdgeStyle;rounded=0;orthogonalLoop=1;jettySize=auto;html=1;exitX=1;exitY=0.25;exitDx=0;exitDy=0;" parent="1" source="M6uvEseLIlFZfIpXj4Gl-5" edge="1">
          <mxGeometry relative="1" as="geometry">
            <mxPoint x="-140" y="435" as="targetPoint" />
            <Array as="points">
              <mxPoint x="-160" y="490" />
              <mxPoint x="-160" y="435" />
            </Array>
          </mxGeometry>
        </mxCell>
        <mxCell id="M6uvEseLIlFZfIpXj4Gl-45" style="edgeStyle=orthogonalEdgeStyle;rounded=0;orthogonalLoop=1;jettySize=auto;html=1;exitX=1;exitY=0;exitDx=0;exitDy=0;entryX=0;entryY=0.5;entryDx=0;entryDy=0;" parent="1" source="M6uvEseLIlFZfIpXj4Gl-5" target="M6uvEseLIlFZfIpXj4Gl-10" edge="1">
          <mxGeometry relative="1" as="geometry">
            <Array as="points">
              <mxPoint x="-180" y="480" />
              <mxPoint x="-180" y="380" />
            </Array>
          </mxGeometry>
        </mxCell>
        <mxCell id="igc6wY87mEMWCfnMQ46z-16" style="edgeStyle=orthogonalEdgeStyle;rounded=0;orthogonalLoop=1;jettySize=auto;html=1;entryX=1;entryY=0.5;entryDx=0;entryDy=0;" parent="1" source="M6uvEseLIlFZfIpXj4Gl-5" target="M6uvEseLIlFZfIpXj4Gl-4" edge="1">
          <mxGeometry relative="1" as="geometry">
            <Array as="points">
              <mxPoint x="-260" y="400" />
              <mxPoint x="-340" y="400" />
            </Array>
          </mxGeometry>
        </mxCell>
        <mxCell id="igc6wY87mEMWCfnMQ46z-17" style="edgeStyle=orthogonalEdgeStyle;rounded=0;orthogonalLoop=1;jettySize=auto;html=1;entryX=1;entryY=1;entryDx=0;entryDy=0;" parent="1" source="M6uvEseLIlFZfIpXj4Gl-5" target="M6uvEseLIlFZfIpXj4Gl-7" edge="1">
          <mxGeometry relative="1" as="geometry">
            <Array as="points">
              <mxPoint x="-250" y="370" />
              <mxPoint x="-325" y="370" />
            </Array>
          </mxGeometry>
        </mxCell>
        <mxCell id="M6uvEseLIlFZfIpXj4Gl-5" value="User" style="rounded=1;arcSize=10;whiteSpace=wrap;html=1;align=center;" parent="1" vertex="1">
          <mxGeometry x="-270" y="490" width="70" height="30" as="geometry" />
        </mxCell>
        <mxCell id="M6uvEseLIlFZfIpXj4Gl-7" value="email" style="ellipse;whiteSpace=wrap;html=1;align=center;" parent="1" vertex="1">
          <mxGeometry x="-410" y="300" width="100" height="40" as="geometry" />
        </mxCell>
        <mxCell id="M6uvEseLIlFZfIpXj4Gl-8" value="emailVerified" style="ellipse;whiteSpace=wrap;html=1;align=center;" parent="1" vertex="1">
          <mxGeometry x="-300" y="320" width="100" height="40" as="geometry" />
        </mxCell>
        <mxCell id="M6uvEseLIlFZfIpXj4Gl-9" value="password" style="ellipse;whiteSpace=wrap;html=1;align=center;" parent="1" vertex="1">
          <mxGeometry x="-190" y="320" width="100" height="40" as="geometry" />
        </mxCell>
        <mxCell id="M6uvEseLIlFZfIpXj4Gl-10" value="role" style="ellipse;whiteSpace=wrap;html=1;align=center;" parent="1" vertex="1">
          <mxGeometry x="-140" y="360" width="100" height="40" as="geometry" />
        </mxCell>
        <mxCell id="M6uvEseLIlFZfIpXj4Gl-11" value="image" style="ellipse;whiteSpace=wrap;html=1;align=center;" parent="1" vertex="1">
          <mxGeometry x="-425" y="400" width="100" height="40" as="geometry" />
        </mxCell>
        <mxCell id="M6uvEseLIlFZfIpXj4Gl-12" value="isTowFactorEnabled" style="ellipse;whiteSpace=wrap;html=1;align=center;" parent="1" vertex="1">
          <mxGeometry x="-140" y="410" width="120" height="50" as="geometry" />
        </mxCell>
        <mxCell id="M6uvEseLIlFZfIpXj4Gl-34" value="twoFactorConfirmation" style="ellipse;whiteSpace=wrap;html=1;align=center;" parent="1" vertex="1">
          <mxGeometry x="-140" y="470" width="130" height="50" as="geometry" />
        </mxCell>
        <mxCell id="M6uvEseLIlFZfIpXj4Gl-43" style="edgeStyle=orthogonalEdgeStyle;rounded=0;orthogonalLoop=1;jettySize=auto;html=1;entryX=-0.01;entryY=0.589;entryDx=0;entryDy=0;entryPerimeter=0;" parent="1" source="M6uvEseLIlFZfIpXj4Gl-5" target="M6uvEseLIlFZfIpXj4Gl-34" edge="1">
          <mxGeometry relative="1" as="geometry" />
        </mxCell>
        <mxCell id="M6uvEseLIlFZfIpXj4Gl-61" style="edgeStyle=orthogonalEdgeStyle;rounded=0;orthogonalLoop=1;jettySize=auto;html=1;" parent="1" source="M6uvEseLIlFZfIpXj4Gl-46" target="M6uvEseLIlFZfIpXj4Gl-47" edge="1">
          <mxGeometry relative="1" as="geometry" />
        </mxCell>
        <mxCell id="M6uvEseLIlFZfIpXj4Gl-62" style="edgeStyle=orthogonalEdgeStyle;rounded=0;orthogonalLoop=1;jettySize=auto;html=1;exitX=0.25;exitY=0;exitDx=0;exitDy=0;entryX=1;entryY=0.5;entryDx=0;entryDy=0;" parent="1" source="M6uvEseLIlFZfIpXj4Gl-46" target="M6uvEseLIlFZfIpXj4Gl-49" edge="1">
          <mxGeometry relative="1" as="geometry">
            <Array as="points">
              <mxPoint x="-770" y="690" />
              <mxPoint x="-770" y="620" />
            </Array>
          </mxGeometry>
        </mxCell>
        <mxCell id="M6uvEseLIlFZfIpXj4Gl-63" style="edgeStyle=orthogonalEdgeStyle;rounded=0;orthogonalLoop=1;jettySize=auto;html=1;exitX=0.5;exitY=0;exitDx=0;exitDy=0;entryX=0.66;entryY=1.014;entryDx=0;entryDy=0;entryPerimeter=0;" parent="1" source="M6uvEseLIlFZfIpXj4Gl-46" target="M6uvEseLIlFZfIpXj4Gl-51" edge="1">
          <mxGeometry relative="1" as="geometry">
            <Array as="points">
              <mxPoint x="-730" y="570" />
              <mxPoint x="-774" y="570" />
            </Array>
          </mxGeometry>
        </mxCell>
        <mxCell id="M6uvEseLIlFZfIpXj4Gl-71" style="edgeStyle=orthogonalEdgeStyle;rounded=0;orthogonalLoop=1;jettySize=auto;html=1;exitX=0.25;exitY=1;exitDx=0;exitDy=0;entryX=1;entryY=0;entryDx=0;entryDy=0;" parent="1" source="M6uvEseLIlFZfIpXj4Gl-46" target="M6uvEseLIlFZfIpXj4Gl-59" edge="1">
          <mxGeometry relative="1" as="geometry" />
        </mxCell>
        <mxCell id="igc6wY87mEMWCfnMQ46z-6" style="edgeStyle=orthogonalEdgeStyle;rounded=0;orthogonalLoop=1;jettySize=auto;html=1;exitX=1;exitY=0;exitDx=0;exitDy=0;entryX=0;entryY=0.5;entryDx=0;entryDy=0;" parent="1" source="M6uvEseLIlFZfIpXj4Gl-46" target="M6uvEseLIlFZfIpXj4Gl-52" edge="1">
          <mxGeometry relative="1" as="geometry" />
        </mxCell>
        <mxCell id="igc6wY87mEMWCfnMQ46z-19" style="edgeStyle=orthogonalEdgeStyle;rounded=0;orthogonalLoop=1;jettySize=auto;html=1;entryX=0;entryY=0;entryDx=0;entryDy=0;" parent="1" source="M6uvEseLIlFZfIpXj4Gl-46" target="M6uvEseLIlFZfIpXj4Gl-56" edge="1">
          <mxGeometry relative="1" as="geometry">
            <Array as="points">
              <mxPoint x="-695" y="770" />
              <mxPoint x="-695" y="770" />
            </Array>
          </mxGeometry>
        </mxCell>
        <mxCell id="M6uvEseLIlFZfIpXj4Gl-46" value="Account" style="rounded=1;arcSize=10;whiteSpace=wrap;html=1;align=center;" parent="1" vertex="1">
          <mxGeometry x="-780" y="690" width="100" height="40" as="geometry" />
        </mxCell>
        <mxCell id="M6uvEseLIlFZfIpXj4Gl-47" value="&amp;nbsp; id&amp;nbsp;&amp;nbsp;" style="ellipse;whiteSpace=wrap;html=1;align=center;fontStyle=4;" parent="1" vertex="1">
          <mxGeometry x="-950" y="650" width="100" height="40" as="geometry" />
        </mxCell>
        <mxCell id="M6uvEseLIlFZfIpXj4Gl-49" value="&lt;span style=&quot;border-bottom: 1px dotted&quot;&gt;userId&lt;/span&gt;" style="ellipse;whiteSpace=wrap;html=1;align=center;" parent="1" vertex="1">
          <mxGeometry x="-930" y="600" width="100" height="40" as="geometry" />
        </mxCell>
        <mxCell id="M6uvEseLIlFZfIpXj4Gl-50" value="provider" style="ellipse;whiteSpace=wrap;html=1;align=center;" parent="1" vertex="1">
          <mxGeometry x="-900" y="540" width="100" height="40" as="geometry" />
        </mxCell>
        <mxCell id="M6uvEseLIlFZfIpXj4Gl-51" value="type" style="ellipse;whiteSpace=wrap;html=1;align=center;" parent="1" vertex="1">
          <mxGeometry x="-840" y="500" width="100" height="40" as="geometry" />
        </mxCell>
        <mxCell id="M6uvEseLIlFZfIpXj4Gl-52" value="expire_at" style="ellipse;whiteSpace=wrap;html=1;align=center;" parent="1" vertex="1">
          <mxGeometry x="-630" y="650" width="100" height="40" as="geometry" />
        </mxCell>
        <mxCell id="M6uvEseLIlFZfIpXj4Gl-53" value="token_type" style="ellipse;whiteSpace=wrap;html=1;align=center;" parent="1" vertex="1">
          <mxGeometry x="-610" y="750" width="100" height="40" as="geometry" />
        </mxCell>
        <mxCell id="M6uvEseLIlFZfIpXj4Gl-54" value="access_token" style="ellipse;whiteSpace=wrap;html=1;align=center;" parent="1" vertex="1">
          <mxGeometry x="-665" y="550" width="100" height="40" as="geometry" />
        </mxCell>
        <mxCell id="M6uvEseLIlFZfIpXj4Gl-55" value="providerAccountId" style="ellipse;whiteSpace=wrap;html=1;align=center;" parent="1" vertex="1">
          <mxGeometry x="-750" y="520" width="100" height="40" as="geometry" />
        </mxCell>
        <mxCell id="M6uvEseLIlFZfIpXj4Gl-56" value="scope" style="ellipse;whiteSpace=wrap;html=1;align=center;" parent="1" vertex="1">
          <mxGeometry x="-710" y="780" width="100" height="40" as="geometry" />
        </mxCell>
        <mxCell id="M6uvEseLIlFZfIpXj4Gl-57" value="refresh_token" style="ellipse;whiteSpace=wrap;html=1;align=center;" parent="1" vertex="1">
          <mxGeometry x="-650" y="600" width="100" height="40" as="geometry" />
        </mxCell>
        <mxCell id="M6uvEseLIlFZfIpXj4Gl-58" value="id_token" style="ellipse;whiteSpace=wrap;html=1;align=center;" parent="1" vertex="1">
          <mxGeometry x="-950" y="760" width="100" height="40" as="geometry" />
        </mxCell>
        <mxCell id="M6uvEseLIlFZfIpXj4Gl-59" value="session_state" style="ellipse;whiteSpace=wrap;html=1;align=center;" parent="1" vertex="1">
          <mxGeometry x="-840" y="780" width="100" height="40" as="geometry" />
        </mxCell>
        <mxCell id="M6uvEseLIlFZfIpXj4Gl-64" style="edgeStyle=orthogonalEdgeStyle;rounded=0;orthogonalLoop=1;jettySize=auto;html=1;exitX=0.75;exitY=0;exitDx=0;exitDy=0;entryX=1;entryY=1;entryDx=0;entryDy=0;" parent="1" source="M6uvEseLIlFZfIpXj4Gl-46" target="M6uvEseLIlFZfIpXj4Gl-50" edge="1">
          <mxGeometry relative="1" as="geometry">
            <Array as="points">
              <mxPoint x="-750" y="690" />
              <mxPoint x="-750" y="590" />
              <mxPoint x="-815" y="590" />
            </Array>
          </mxGeometry>
        </mxCell>
        <mxCell id="M6uvEseLIlFZfIpXj4Gl-66" style="edgeStyle=orthogonalEdgeStyle;rounded=0;orthogonalLoop=1;jettySize=auto;html=1;entryX=0.037;entryY=0.771;entryDx=0;entryDy=0;entryPerimeter=0;exitX=0.803;exitY=-0.005;exitDx=0;exitDy=0;exitPerimeter=0;" parent="1" source="M6uvEseLIlFZfIpXj4Gl-46" target="M6uvEseLIlFZfIpXj4Gl-54" edge="1">
          <mxGeometry relative="1" as="geometry">
            <Array as="points">
              <mxPoint x="-700" y="620" />
              <mxPoint x="-661" y="620" />
            </Array>
            <mxPoint x="-690" y="690" as="sourcePoint" />
          </mxGeometry>
        </mxCell>
        <mxCell id="M6uvEseLIlFZfIpXj4Gl-69" style="edgeStyle=orthogonalEdgeStyle;rounded=0;orthogonalLoop=1;jettySize=auto;html=1;exitX=1;exitY=1;exitDx=0;exitDy=0;entryX=0.019;entryY=0.414;entryDx=0;entryDy=0;entryPerimeter=0;" parent="1" source="M6uvEseLIlFZfIpXj4Gl-46" target="M6uvEseLIlFZfIpXj4Gl-53" edge="1">
          <mxGeometry relative="1" as="geometry">
            <Array as="points">
              <mxPoint x="-680" y="750" />
              <mxPoint x="-608" y="750" />
            </Array>
          </mxGeometry>
        </mxCell>
        <mxCell id="M6uvEseLIlFZfIpXj4Gl-72" style="edgeStyle=orthogonalEdgeStyle;rounded=0;orthogonalLoop=1;jettySize=auto;html=1;exitX=0;exitY=1;exitDx=0;exitDy=0;entryX=1;entryY=0.25;entryDx=0;entryDy=0;entryPerimeter=0;" parent="1" source="M6uvEseLIlFZfIpXj4Gl-46" target="M6uvEseLIlFZfIpXj4Gl-58" edge="1">
          <mxGeometry relative="1" as="geometry" />
        </mxCell>
        <mxCell id="M6uvEseLIlFZfIpXj4Gl-80" style="edgeStyle=orthogonalEdgeStyle;rounded=0;orthogonalLoop=1;jettySize=auto;html=1;exitX=0;exitY=0.5;exitDx=0;exitDy=0;entryX=1;entryY=0.5;entryDx=0;entryDy=0;" parent="1" source="M6uvEseLIlFZfIpXj4Gl-74" target="M6uvEseLIlFZfIpXj4Gl-78" edge="1">
          <mxGeometry relative="1" as="geometry" />
        </mxCell>
        <mxCell id="M6uvEseLIlFZfIpXj4Gl-81" style="edgeStyle=orthogonalEdgeStyle;rounded=0;orthogonalLoop=1;jettySize=auto;html=1;exitX=0.25;exitY=0;exitDx=0;exitDy=0;entryX=1;entryY=1;entryDx=0;entryDy=0;" parent="1" source="M6uvEseLIlFZfIpXj4Gl-74" target="M6uvEseLIlFZfIpXj4Gl-75" edge="1">
          <mxGeometry relative="1" as="geometry" />
        </mxCell>
        <mxCell id="M6uvEseLIlFZfIpXj4Gl-83" style="edgeStyle=orthogonalEdgeStyle;rounded=0;orthogonalLoop=1;jettySize=auto;html=1;exitX=0.75;exitY=0;exitDx=0;exitDy=0;entryX=0;entryY=0.5;entryDx=0;entryDy=0;" parent="1" source="M6uvEseLIlFZfIpXj4Gl-74" target="M6uvEseLIlFZfIpXj4Gl-79" edge="1">
          <mxGeometry relative="1" as="geometry" />
        </mxCell>
        <mxCell id="M6uvEseLIlFZfIpXj4Gl-74" value="session" style="rounded=1;arcSize=10;whiteSpace=wrap;html=1;align=center;" parent="1" vertex="1">
          <mxGeometry x="-700" y="260" width="100" height="40" as="geometry" />
        </mxCell>
        <mxCell id="M6uvEseLIlFZfIpXj4Gl-75" value="sessionToken" style="ellipse;whiteSpace=wrap;html=1;align=center;" parent="1" vertex="1">
          <mxGeometry x="-790" y="180" width="100" height="40" as="geometry" />
        </mxCell>
        <mxCell id="M6uvEseLIlFZfIpXj4Gl-76" value="expires" style="ellipse;whiteSpace=wrap;html=1;align=center;" parent="1" vertex="1">
          <mxGeometry x="-680" y="160" width="100" height="40" as="geometry" />
        </mxCell>
        <mxCell id="M6uvEseLIlFZfIpXj4Gl-78" value="&amp;nbsp; id&amp;nbsp;&amp;nbsp;" style="ellipse;whiteSpace=wrap;html=1;align=center;fontStyle=4;" parent="1" vertex="1">
          <mxGeometry x="-850" y="220" width="100" height="40" as="geometry" />
        </mxCell>
        <mxCell id="M6uvEseLIlFZfIpXj4Gl-79" value="&lt;span style=&quot;border-bottom: 1px dotted&quot;&gt;userId&lt;/span&gt;" style="ellipse;whiteSpace=wrap;html=1;align=center;" parent="1" vertex="1">
          <mxGeometry x="-590" y="200" width="100" height="40" as="geometry" />
        </mxCell>
        <mxCell id="M6uvEseLIlFZfIpXj4Gl-82" style="edgeStyle=orthogonalEdgeStyle;rounded=0;orthogonalLoop=1;jettySize=auto;html=1;entryX=0.3;entryY=1;entryDx=0;entryDy=0;entryPerimeter=0;" parent="1" source="M6uvEseLIlFZfIpXj4Gl-74" target="M6uvEseLIlFZfIpXj4Gl-76" edge="1">
          <mxGeometry relative="1" as="geometry" />
        </mxCell>
        <mxCell id="M6uvEseLIlFZfIpXj4Gl-99" style="edgeStyle=orthogonalEdgeStyle;rounded=0;orthogonalLoop=1;jettySize=auto;html=1;exitX=1;exitY=0.25;exitDx=0;exitDy=0;entryX=0;entryY=0.5;entryDx=0;entryDy=0;" parent="1" source="M6uvEseLIlFZfIpXj4Gl-90" target="M6uvEseLIlFZfIpXj4Gl-95" edge="1">
          <mxGeometry relative="1" as="geometry" />
        </mxCell>
        <mxCell id="M6uvEseLIlFZfIpXj4Gl-90" value="verificationToken" style="rounded=1;arcSize=10;whiteSpace=wrap;html=1;align=center;" parent="1" vertex="1">
          <mxGeometry x="-1490" y="280" width="100" height="40" as="geometry" />
        </mxCell>
        <mxCell id="M6uvEseLIlFZfIpXj4Gl-91" value="email" style="ellipse;whiteSpace=wrap;html=1;align=center;" parent="1" vertex="1">
          <mxGeometry x="-1605" y="250" width="100" height="40" as="geometry" />
        </mxCell>
        <mxCell id="M6uvEseLIlFZfIpXj4Gl-92" value="token" style="ellipse;whiteSpace=wrap;html=1;align=center;" parent="1" vertex="1">
          <mxGeometry x="-1525" y="200" width="100" height="40" as="geometry" />
        </mxCell>
        <mxCell id="M6uvEseLIlFZfIpXj4Gl-94" value="expires" style="ellipse;whiteSpace=wrap;html=1;align=center;" parent="1" vertex="1">
          <mxGeometry x="-1415" y="215" width="100" height="40" as="geometry" />
        </mxCell>
        <mxCell id="M6uvEseLIlFZfIpXj4Gl-95" value="&amp;nbsp; &amp;nbsp;id&amp;nbsp; &amp;nbsp;" style="ellipse;whiteSpace=wrap;html=1;align=center;fontStyle=4;" parent="1" vertex="1">
          <mxGeometry x="-1375" y="270" width="100" height="40" as="geometry" />
        </mxCell>
        <mxCell id="M6uvEseLIlFZfIpXj4Gl-96" style="edgeStyle=orthogonalEdgeStyle;rounded=0;orthogonalLoop=1;jettySize=auto;html=1;exitX=0;exitY=0.25;exitDx=0;exitDy=0;entryX=0.72;entryY=0.94;entryDx=0;entryDy=0;entryPerimeter=0;" parent="1" source="M6uvEseLIlFZfIpXj4Gl-90" target="M6uvEseLIlFZfIpXj4Gl-91" edge="1">
          <mxGeometry relative="1" as="geometry" />
        </mxCell>
        <mxCell id="M6uvEseLIlFZfIpXj4Gl-97" style="edgeStyle=orthogonalEdgeStyle;rounded=0;orthogonalLoop=1;jettySize=auto;html=1;exitX=0.25;exitY=0;exitDx=0;exitDy=0;entryX=0.615;entryY=1.048;entryDx=0;entryDy=0;entryPerimeter=0;" parent="1" source="M6uvEseLIlFZfIpXj4Gl-90" target="M6uvEseLIlFZfIpXj4Gl-92" edge="1">
          <mxGeometry relative="1" as="geometry" />
        </mxCell>
        <mxCell id="M6uvEseLIlFZfIpXj4Gl-98" style="edgeStyle=orthogonalEdgeStyle;rounded=0;orthogonalLoop=1;jettySize=auto;html=1;exitX=0.75;exitY=0;exitDx=0;exitDy=0;entryX=0.049;entryY=0.839;entryDx=0;entryDy=0;entryPerimeter=0;" parent="1" source="M6uvEseLIlFZfIpXj4Gl-90" target="M6uvEseLIlFZfIpXj4Gl-94" edge="1">
          <mxGeometry relative="1" as="geometry" />
        </mxCell>
        <mxCell id="M6uvEseLIlFZfIpXj4Gl-100" style="edgeStyle=orthogonalEdgeStyle;rounded=0;orthogonalLoop=1;jettySize=auto;html=1;exitX=1;exitY=0.25;exitDx=0;exitDy=0;entryX=0;entryY=0.5;entryDx=0;entryDy=0;" parent="1" source="M6uvEseLIlFZfIpXj4Gl-101" target="M6uvEseLIlFZfIpXj4Gl-105" edge="1">
          <mxGeometry relative="1" as="geometry" />
        </mxCell>
        <mxCell id="M6uvEseLIlFZfIpXj4Gl-101" value="passwordToken" style="rounded=1;arcSize=10;whiteSpace=wrap;html=1;align=center;" parent="1" vertex="1">
          <mxGeometry x="-1500" y="470" width="100" height="40" as="geometry" />
        </mxCell>
        <mxCell id="M6uvEseLIlFZfIpXj4Gl-102" value="email" style="ellipse;whiteSpace=wrap;html=1;align=center;" parent="1" vertex="1">
          <mxGeometry x="-1615" y="440" width="100" height="40" as="geometry" />
        </mxCell>
        <mxCell id="M6uvEseLIlFZfIpXj4Gl-103" value="token" style="ellipse;whiteSpace=wrap;html=1;align=center;" parent="1" vertex="1">
          <mxGeometry x="-1535" y="390" width="100" height="40" as="geometry" />
        </mxCell>
        <mxCell id="M6uvEseLIlFZfIpXj4Gl-104" value="expires" style="ellipse;whiteSpace=wrap;html=1;align=center;" parent="1" vertex="1">
          <mxGeometry x="-1425" y="405" width="100" height="40" as="geometry" />
        </mxCell>
        <mxCell id="M6uvEseLIlFZfIpXj4Gl-105" value="&amp;nbsp; &amp;nbsp;id&amp;nbsp; &amp;nbsp;" style="ellipse;whiteSpace=wrap;html=1;align=center;fontStyle=4;" parent="1" vertex="1">
          <mxGeometry x="-1385" y="460" width="100" height="40" as="geometry" />
        </mxCell>
        <mxCell id="M6uvEseLIlFZfIpXj4Gl-106" style="edgeStyle=orthogonalEdgeStyle;rounded=0;orthogonalLoop=1;jettySize=auto;html=1;exitX=0;exitY=0.25;exitDx=0;exitDy=0;entryX=0.72;entryY=0.94;entryDx=0;entryDy=0;entryPerimeter=0;" parent="1" source="M6uvEseLIlFZfIpXj4Gl-101" target="M6uvEseLIlFZfIpXj4Gl-102" edge="1">
          <mxGeometry relative="1" as="geometry" />
        </mxCell>
        <mxCell id="M6uvEseLIlFZfIpXj4Gl-107" style="edgeStyle=orthogonalEdgeStyle;rounded=0;orthogonalLoop=1;jettySize=auto;html=1;exitX=0.25;exitY=0;exitDx=0;exitDy=0;entryX=0.615;entryY=1.048;entryDx=0;entryDy=0;entryPerimeter=0;" parent="1" source="M6uvEseLIlFZfIpXj4Gl-101" target="M6uvEseLIlFZfIpXj4Gl-103" edge="1">
          <mxGeometry relative="1" as="geometry" />
        </mxCell>
        <mxCell id="M6uvEseLIlFZfIpXj4Gl-108" style="edgeStyle=orthogonalEdgeStyle;rounded=0;orthogonalLoop=1;jettySize=auto;html=1;exitX=0.75;exitY=0;exitDx=0;exitDy=0;entryX=0.049;entryY=0.839;entryDx=0;entryDy=0;entryPerimeter=0;" parent="1" source="M6uvEseLIlFZfIpXj4Gl-101" target="M6uvEseLIlFZfIpXj4Gl-104" edge="1">
          <mxGeometry relative="1" as="geometry" />
        </mxCell>
        <mxCell id="M6uvEseLIlFZfIpXj4Gl-109" style="edgeStyle=orthogonalEdgeStyle;rounded=0;orthogonalLoop=1;jettySize=auto;html=1;exitX=1;exitY=0.25;exitDx=0;exitDy=0;entryX=0;entryY=0.5;entryDx=0;entryDy=0;" parent="1" source="M6uvEseLIlFZfIpXj4Gl-110" target="M6uvEseLIlFZfIpXj4Gl-114" edge="1">
          <mxGeometry relative="1" as="geometry" />
        </mxCell>
        <mxCell id="M6uvEseLIlFZfIpXj4Gl-110" value="twofactorToken" style="rounded=1;arcSize=10;whiteSpace=wrap;html=1;align=center;" parent="1" vertex="1">
          <mxGeometry x="-1510" y="650" width="100" height="40" as="geometry" />
        </mxCell>
        <mxCell id="M6uvEseLIlFZfIpXj4Gl-111" value="email" style="ellipse;whiteSpace=wrap;html=1;align=center;" parent="1" vertex="1">
          <mxGeometry x="-1625" y="620" width="100" height="40" as="geometry" />
        </mxCell>
        <mxCell id="M6uvEseLIlFZfIpXj4Gl-112" value="token" style="ellipse;whiteSpace=wrap;html=1;align=center;" parent="1" vertex="1">
          <mxGeometry x="-1545" y="570" width="100" height="40" as="geometry" />
        </mxCell>
        <mxCell id="M6uvEseLIlFZfIpXj4Gl-113" value="expires" style="ellipse;whiteSpace=wrap;html=1;align=center;" parent="1" vertex="1">
          <mxGeometry x="-1435" y="585" width="100" height="40" as="geometry" />
        </mxCell>
        <mxCell id="M6uvEseLIlFZfIpXj4Gl-114" value="&amp;nbsp; &amp;nbsp;id&amp;nbsp; &amp;nbsp;" style="ellipse;whiteSpace=wrap;html=1;align=center;fontStyle=4;" parent="1" vertex="1">
          <mxGeometry x="-1395" y="640" width="100" height="40" as="geometry" />
        </mxCell>
        <mxCell id="M6uvEseLIlFZfIpXj4Gl-115" style="edgeStyle=orthogonalEdgeStyle;rounded=0;orthogonalLoop=1;jettySize=auto;html=1;exitX=0;exitY=0.25;exitDx=0;exitDy=0;entryX=0.72;entryY=0.94;entryDx=0;entryDy=0;entryPerimeter=0;" parent="1" source="M6uvEseLIlFZfIpXj4Gl-110" target="M6uvEseLIlFZfIpXj4Gl-111" edge="1">
          <mxGeometry relative="1" as="geometry" />
        </mxCell>
        <mxCell id="M6uvEseLIlFZfIpXj4Gl-116" style="edgeStyle=orthogonalEdgeStyle;rounded=0;orthogonalLoop=1;jettySize=auto;html=1;exitX=0.25;exitY=0;exitDx=0;exitDy=0;entryX=0.615;entryY=1.048;entryDx=0;entryDy=0;entryPerimeter=0;" parent="1" source="M6uvEseLIlFZfIpXj4Gl-110" target="M6uvEseLIlFZfIpXj4Gl-112" edge="1">
          <mxGeometry relative="1" as="geometry" />
        </mxCell>
        <mxCell id="M6uvEseLIlFZfIpXj4Gl-117" style="edgeStyle=orthogonalEdgeStyle;rounded=0;orthogonalLoop=1;jettySize=auto;html=1;exitX=0.75;exitY=0;exitDx=0;exitDy=0;entryX=0.049;entryY=0.839;entryDx=0;entryDy=0;entryPerimeter=0;" parent="1" source="M6uvEseLIlFZfIpXj4Gl-110" target="M6uvEseLIlFZfIpXj4Gl-113" edge="1">
          <mxGeometry relative="1" as="geometry" />
        </mxCell>
        <mxCell id="M6uvEseLIlFZfIpXj4Gl-119" value="&amp;nbsp; id&amp;nbsp;&amp;nbsp;" style="ellipse;whiteSpace=wrap;html=1;align=center;fontStyle=4;" parent="1" vertex="1">
          <mxGeometry x="440" y="526.25" width="100" height="40" as="geometry" />
        </mxCell>
        <mxCell id="M6uvEseLIlFZfIpXj4Gl-120" style="edgeStyle=orthogonalEdgeStyle;rounded=0;orthogonalLoop=1;jettySize=auto;html=1;entryX=1;entryY=0.5;entryDx=0;entryDy=0;" parent="1" source="M6uvEseLIlFZfIpXj4Gl-124" target="M6uvEseLIlFZfIpXj4Gl-125" edge="1">
          <mxGeometry relative="1" as="geometry">
            <Array as="points">
              <mxPoint x="600" y="496.25" />
            </Array>
          </mxGeometry>
        </mxCell>
        <mxCell id="M6uvEseLIlFZfIpXj4Gl-122" style="edgeStyle=orthogonalEdgeStyle;rounded=0;orthogonalLoop=1;jettySize=auto;html=1;exitX=1;exitY=0.25;exitDx=0;exitDy=0;" parent="1" source="M6uvEseLIlFZfIpXj4Gl-124" edge="1">
          <mxGeometry relative="1" as="geometry">
            <Array as="points">
              <mxPoint x="710" y="616.25" />
              <mxPoint x="710" y="561.25" />
            </Array>
            <mxPoint x="730" y="561.25" as="targetPoint" />
          </mxGeometry>
        </mxCell>
        <mxCell id="M6uvEseLIlFZfIpXj4Gl-124" value="product" style="rounded=1;arcSize=10;whiteSpace=wrap;html=1;align=center;" parent="1" vertex="1">
          <mxGeometry x="600" y="616.25" width="70" height="30" as="geometry" />
        </mxCell>
        <mxCell id="M6uvEseLIlFZfIpXj4Gl-125" value="description" style="ellipse;whiteSpace=wrap;html=1;align=center;" parent="1" vertex="1">
          <mxGeometry x="470" y="476.25" width="100" height="40" as="geometry" />
        </mxCell>
        <mxCell id="M6uvEseLIlFZfIpXj4Gl-127" value="price" style="ellipse;whiteSpace=wrap;html=1;align=center;" parent="1" vertex="1">
          <mxGeometry x="755" y="116.25" width="100" height="40" as="geometry" />
        </mxCell>
        <mxCell id="M6uvEseLIlFZfIpXj4Gl-129" value="name" style="ellipse;whiteSpace=wrap;html=1;align=center;" parent="1" vertex="1">
          <mxGeometry x="440" y="576.25" width="100" height="40" as="geometry" />
        </mxCell>
        <mxCell id="M6uvEseLIlFZfIpXj4Gl-132" style="edgeStyle=orthogonalEdgeStyle;rounded=0;orthogonalLoop=1;jettySize=auto;html=1;entryX=0.943;entryY=0.669;entryDx=0;entryDy=0;entryPerimeter=0;" parent="1" source="M6uvEseLIlFZfIpXj4Gl-124" target="M6uvEseLIlFZfIpXj4Gl-129" edge="1">
          <mxGeometry relative="1" as="geometry" />
        </mxCell>
        <mxCell id="M6uvEseLIlFZfIpXj4Gl-133" style="edgeStyle=orthogonalEdgeStyle;rounded=0;orthogonalLoop=1;jettySize=auto;html=1;entryX=0.993;entryY=0.551;entryDx=0;entryDy=0;entryPerimeter=0;" parent="1" source="M6uvEseLIlFZfIpXj4Gl-124" target="M6uvEseLIlFZfIpXj4Gl-119" edge="1">
          <mxGeometry relative="1" as="geometry">
            <Array as="points">
              <mxPoint x="580" y="626.25" />
              <mxPoint x="580" y="548.25" />
            </Array>
          </mxGeometry>
        </mxCell>
        <mxCell id="M6uvEseLIlFZfIpXj4Gl-135" style="edgeStyle=orthogonalEdgeStyle;rounded=0;orthogonalLoop=1;jettySize=auto;html=1;entryX=0;entryY=0.5;entryDx=0;entryDy=0;" parent="1" source="M6uvEseLIlFZfIpXj4Gl-124" target="M6uvEseLIlFZfIpXj4Gl-144" edge="1">
          <mxGeometry relative="1" as="geometry">
            <mxPoint x="728.6999999999998" y="625.7" as="targetPoint" />
          </mxGeometry>
        </mxCell>
        <mxCell id="M6uvEseLIlFZfIpXj4Gl-136" value="name" style="ellipse;whiteSpace=wrap;html=1;align=center;" parent="1" vertex="1">
          <mxGeometry x="-450" y="520" width="100" height="40" as="geometry" />
        </mxCell>
        <mxCell id="7U9PphhysYI-u7HBj0Kk-34" style="edgeStyle=orthogonalEdgeStyle;rounded=0;orthogonalLoop=1;jettySize=auto;html=1;exitX=0.971;exitY=0.008;exitDx=0;exitDy=0;exitPerimeter=0;entryX=-0.034;entryY=0.678;entryDx=0;entryDy=0;entryPerimeter=0;" parent="1" source="M6uvEseLIlFZfIpXj4Gl-139" target="7U9PphhysYI-u7HBj0Kk-33" edge="1">
          <mxGeometry relative="1" as="geometry">
            <mxPoint x="-475" y="-29.982456140350905" as="sourcePoint" />
            <mxPoint x="-460" y="-30" as="targetPoint" />
          </mxGeometry>
        </mxCell>
        <mxCell id="7U9PphhysYI-u7HBj0Kk-35" style="edgeStyle=orthogonalEdgeStyle;rounded=0;orthogonalLoop=1;jettySize=auto;html=1;entryX=0.5;entryY=1;entryDx=0;entryDy=0;" parent="1" source="M6uvEseLIlFZfIpXj4Gl-139" target="7U9PphhysYI-u7HBj0Kk-32" edge="1">
          <mxGeometry relative="1" as="geometry">
            <mxPoint x="-570" y="-70" as="targetPoint" />
            <Array as="points">
              <mxPoint x="-560" y="-40" />
              <mxPoint x="-560" y="-40" />
            </Array>
          </mxGeometry>
        </mxCell>
        <mxCell id="7U9PphhysYI-u7HBj0Kk-36" style="edgeStyle=orthogonalEdgeStyle;rounded=0;orthogonalLoop=1;jettySize=auto;html=1;entryX=0;entryY=0.5;entryDx=0;entryDy=0;" parent="1" source="M6uvEseLIlFZfIpXj4Gl-139" target="7U9PphhysYI-u7HBj0Kk-31" edge="1">
          <mxGeometry relative="1" as="geometry">
            <Array as="points">
              <mxPoint x="-520" y="-108" />
            </Array>
          </mxGeometry>
        </mxCell>
        <mxCell id="7U9PphhysYI-u7HBj0Kk-37" style="edgeStyle=orthogonalEdgeStyle;rounded=0;orthogonalLoop=1;jettySize=auto;html=1;entryX=0;entryY=0.5;entryDx=0;entryDy=0;" parent="1" source="M6uvEseLIlFZfIpXj4Gl-139" target="7U9PphhysYI-u7HBj0Kk-30" edge="1">
          <mxGeometry relative="1" as="geometry">
            <Array as="points">
              <mxPoint x="-500" y="-77" />
              <mxPoint x="-470" y="-77" />
            </Array>
          </mxGeometry>
        </mxCell>
        <mxCell id="M6uvEseLIlFZfIpXj4Gl-139" value="address" style="rounded=1;arcSize=10;whiteSpace=wrap;html=1;align=center;" parent="1" vertex="1">
          <mxGeometry x="-580" y="-30" width="100" height="40" as="geometry" />
        </mxCell>
        <mxCell id="M6uvEseLIlFZfIpXj4Gl-140" style="edgeStyle=orthogonalEdgeStyle;rounded=0;orthogonalLoop=1;jettySize=auto;html=1;exitX=0;exitY=0.75;exitDx=0;exitDy=0;" parent="1" source="M6uvEseLIlFZfIpXj4Gl-5" target="M6uvEseLIlFZfIpXj4Gl-136" edge="1">
          <mxGeometry relative="1" as="geometry">
            <mxPoint x="-330" y="540" as="targetPoint" />
            <Array as="points">
              <mxPoint x="-330" y="513" />
              <mxPoint x="-330" y="540" />
            </Array>
          </mxGeometry>
        </mxCell>
        <mxCell id="M6uvEseLIlFZfIpXj4Gl-143" value="&lt;span style=&quot;border-bottom: 1px dotted&quot;&gt;categoryId&lt;/span&gt;" style="ellipse;whiteSpace=wrap;html=1;align=center;" parent="1" vertex="1">
          <mxGeometry x="730" y="546.25" width="100" height="40" as="geometry" />
        </mxCell>
        <mxCell id="M6uvEseLIlFZfIpXj4Gl-144" value="&lt;span style=&quot;border-bottom: 1px dotted&quot;&gt;sellerId&lt;/span&gt;" style="ellipse;whiteSpace=wrap;html=1;align=center;" parent="1" vertex="1">
          <mxGeometry x="730" y="631.25" width="100" height="40" as="geometry" />
        </mxCell>
        <mxCell id="M6uvEseLIlFZfIpXj4Gl-145" value="&amp;nbsp; id&amp;nbsp;&amp;nbsp;" style="ellipse;whiteSpace=wrap;html=1;align=center;fontStyle=4;" parent="1" vertex="1">
          <mxGeometry x="280" y="926.25" width="100" height="40" as="geometry" />
        </mxCell>
        <mxCell id="M6uvEseLIlFZfIpXj4Gl-146" style="edgeStyle=orthogonalEdgeStyle;rounded=0;orthogonalLoop=1;jettySize=auto;html=1;entryX=1;entryY=0.5;entryDx=0;entryDy=0;" parent="1" source="M6uvEseLIlFZfIpXj4Gl-150" target="M6uvEseLIlFZfIpXj4Gl-151" edge="1">
          <mxGeometry relative="1" as="geometry">
            <Array as="points">
              <mxPoint x="430" y="1016.25" />
              <mxPoint x="430" y="896.25" />
            </Array>
          </mxGeometry>
        </mxCell>
        <mxCell id="M6uvEseLIlFZfIpXj4Gl-147" style="edgeStyle=orthogonalEdgeStyle;rounded=0;orthogonalLoop=1;jettySize=auto;html=1;entryX=0.386;entryY=1.003;entryDx=0;entryDy=0;entryPerimeter=0;" parent="1" source="M6uvEseLIlFZfIpXj4Gl-150" target="M6uvEseLIlFZfIpXj4Gl-152" edge="1">
          <mxGeometry relative="1" as="geometry">
            <Array as="points">
              <mxPoint x="475" y="926.25" />
            </Array>
          </mxGeometry>
        </mxCell>
        <mxCell id="M6uvEseLIlFZfIpXj4Gl-150" value="category" style="rounded=1;arcSize=10;whiteSpace=wrap;html=1;align=center;" parent="1" vertex="1">
          <mxGeometry x="440" y="1016.25" width="70" height="30" as="geometry" />
        </mxCell>
        <mxCell id="M6uvEseLIlFZfIpXj4Gl-151" value="description" style="ellipse;whiteSpace=wrap;html=1;align=center;" parent="1" vertex="1">
          <mxGeometry x="310" y="876.25" width="100" height="40" as="geometry" />
        </mxCell>
        <mxCell id="M6uvEseLIlFZfIpXj4Gl-152" value="status" style="ellipse;whiteSpace=wrap;html=1;align=center;" parent="1" vertex="1">
          <mxGeometry x="440" y="886.25" width="90" height="40" as="geometry" />
        </mxCell>
        <mxCell id="M6uvEseLIlFZfIpXj4Gl-153" value="image" style="ellipse;whiteSpace=wrap;html=1;align=center;" parent="1" vertex="1">
          <mxGeometry x="550" y="931.25" width="100" height="40" as="geometry" />
        </mxCell>
        <mxCell id="M6uvEseLIlFZfIpXj4Gl-155" value="name" style="ellipse;whiteSpace=wrap;html=1;align=center;" parent="1" vertex="1">
          <mxGeometry x="280" y="976.25" width="100" height="40" as="geometry" />
        </mxCell>
        <mxCell id="M6uvEseLIlFZfIpXj4Gl-156" style="edgeStyle=orthogonalEdgeStyle;rounded=0;orthogonalLoop=1;jettySize=auto;html=1;entryX=0.943;entryY=0.669;entryDx=0;entryDy=0;entryPerimeter=0;" parent="1" source="M6uvEseLIlFZfIpXj4Gl-150" target="M6uvEseLIlFZfIpXj4Gl-155" edge="1">
          <mxGeometry relative="1" as="geometry" />
        </mxCell>
        <mxCell id="M6uvEseLIlFZfIpXj4Gl-157" style="edgeStyle=orthogonalEdgeStyle;rounded=0;orthogonalLoop=1;jettySize=auto;html=1;entryX=0.993;entryY=0.551;entryDx=0;entryDy=0;entryPerimeter=0;" parent="1" source="M6uvEseLIlFZfIpXj4Gl-150" target="M6uvEseLIlFZfIpXj4Gl-145" edge="1">
          <mxGeometry relative="1" as="geometry">
            <Array as="points">
              <mxPoint x="420" y="1026.25" />
              <mxPoint x="420" y="948.25" />
            </Array>
          </mxGeometry>
        </mxCell>
        <mxCell id="M6uvEseLIlFZfIpXj4Gl-158" style="edgeStyle=orthogonalEdgeStyle;rounded=0;orthogonalLoop=1;jettySize=auto;html=1;" parent="1" source="M6uvEseLIlFZfIpXj4Gl-150" edge="1">
          <mxGeometry relative="1" as="geometry">
            <Array as="points">
              <mxPoint x="600" y="1031.25" />
            </Array>
            <mxPoint x="600" y="976.25" as="targetPoint" />
          </mxGeometry>
        </mxCell>
        <mxCell id="M6uvEseLIlFZfIpXj4Gl-163" style="edgeStyle=orthogonalEdgeStyle;rounded=0;orthogonalLoop=1;jettySize=auto;html=1;entryX=0.5;entryY=1;entryDx=0;entryDy=0;" parent="1" source="M6uvEseLIlFZfIpXj4Gl-165" target="M6uvEseLIlFZfIpXj4Gl-166" edge="1">
          <mxGeometry relative="1" as="geometry">
            <Array as="points">
              <mxPoint x="625" y="276.25" />
              <mxPoint x="575" y="276.25" />
            </Array>
          </mxGeometry>
        </mxCell>
        <mxCell id="M6uvEseLIlFZfIpXj4Gl-164" style="edgeStyle=orthogonalEdgeStyle;rounded=0;orthogonalLoop=1;jettySize=auto;html=1;" parent="1" source="M6uvEseLIlFZfIpXj4Gl-165" target="M6uvEseLIlFZfIpXj4Gl-167" edge="1">
          <mxGeometry relative="1" as="geometry">
            <Array as="points">
              <mxPoint x="675" y="286.25" />
              <mxPoint x="675" y="286.25" />
            </Array>
          </mxGeometry>
        </mxCell>
        <mxCell id="M6uvEseLIlFZfIpXj4Gl-165" value="images" style="ellipse;shape=doubleEllipse;margin=3;whiteSpace=wrap;html=1;align=center;" parent="1" vertex="1">
          <mxGeometry x="605" y="338.75" width="120" height="30" as="geometry" />
        </mxCell>
        <mxCell id="M6uvEseLIlFZfIpXj4Gl-166" value="alt" style="ellipse;whiteSpace=wrap;html=1;align=center;" parent="1" vertex="1">
          <mxGeometry x="525" y="221.25" width="100" height="40" as="geometry" />
        </mxCell>
        <mxCell id="M6uvEseLIlFZfIpXj4Gl-167" value="indexNo" style="ellipse;whiteSpace=wrap;html=1;align=center;" parent="1" vertex="1">
          <mxGeometry x="625" y="203.75" width="100" height="40" as="geometry" />
        </mxCell>
        <mxCell id="M6uvEseLIlFZfIpXj4Gl-169" value="image" style="ellipse;whiteSpace=wrap;html=1;align=center;" parent="1" vertex="1">
          <mxGeometry x="500" y="281.25" width="100" height="40" as="geometry" />
        </mxCell>
        <mxCell id="M6uvEseLIlFZfIpXj4Gl-170" style="edgeStyle=orthogonalEdgeStyle;rounded=0;orthogonalLoop=1;jettySize=auto;html=1;entryX=0.943;entryY=0.669;entryDx=0;entryDy=0;entryPerimeter=0;" parent="1" source="M6uvEseLIlFZfIpXj4Gl-165" edge="1">
          <mxGeometry relative="1" as="geometry">
            <mxPoint x="549.3000000000002" y="320.5100000000002" as="targetPoint" />
          </mxGeometry>
        </mxCell>
        <mxCell id="M6uvEseLIlFZfIpXj4Gl-189" value="has" style="shape=rhombus;perimeter=rhombusPerimeter;whiteSpace=wrap;html=1;align=center;" parent="1" vertex="1">
          <mxGeometry x="-500" y="650" width="120" height="60" as="geometry" />
        </mxCell>
        <mxCell id="M6uvEseLIlFZfIpXj4Gl-196" value="" style="edgeStyle=orthogonalEdgeStyle;fontSize=12;html=1;endArrow=ERmandOne;rounded=0;exitX=1;exitY=0.5;exitDx=0;exitDy=0;" parent="1" source="M6uvEseLIlFZfIpXj4Gl-189" edge="1">
          <mxGeometry width="100" height="100" relative="1" as="geometry">
            <mxPoint x="-530" y="610" as="sourcePoint" />
            <mxPoint x="-270" y="520" as="targetPoint" />
          </mxGeometry>
        </mxCell>
        <mxCell id="M6uvEseLIlFZfIpXj4Gl-197" value="" style="edgeStyle=orthogonalEdgeStyle;fontSize=12;html=1;endArrow=ERzeroToOne;endFill=1;rounded=0;" parent="1" source="M6uvEseLIlFZfIpXj4Gl-189" target="M6uvEseLIlFZfIpXj4Gl-46" edge="1">
          <mxGeometry width="100" height="100" relative="1" as="geometry">
            <mxPoint x="-470" y="760" as="sourcePoint" />
            <mxPoint x="-370" y="660" as="targetPoint" />
            <Array as="points">
              <mxPoint x="-520" y="710" />
              <mxPoint x="-520" y="710" />
            </Array>
          </mxGeometry>
        </mxCell>
        <mxCell id="M6uvEseLIlFZfIpXj4Gl-204" style="edgeStyle=orthogonalEdgeStyle;fontSize=12;html=1;endArrow=ERmandOne;rounded=0;exitX=0.5;exitY=1;exitDx=0;exitDy=0;" parent="1" source="M6uvEseLIlFZfIpXj4Gl-202" target="M6uvEseLIlFZfIpXj4Gl-5" edge="1">
          <mxGeometry relative="1" as="geometry">
            <Array as="points">
              <mxPoint x="-580" y="460" />
              <mxPoint x="-490" y="460" />
              <mxPoint x="-490" y="505" />
            </Array>
          </mxGeometry>
        </mxCell>
        <mxCell id="M6uvEseLIlFZfIpXj4Gl-205" style="fontSize=12;html=1;endArrow=ERmandOne;rounded=0;exitX=0.5;exitY=0;exitDx=0;exitDy=0;edgeStyle=orthogonalEdgeStyle;" parent="1" source="M6uvEseLIlFZfIpXj4Gl-202" target="M6uvEseLIlFZfIpXj4Gl-74" edge="1">
          <mxGeometry relative="1" as="geometry" />
        </mxCell>
        <mxCell id="M6uvEseLIlFZfIpXj4Gl-202" value="has" style="shape=rhombus;perimeter=rhombusPerimeter;whiteSpace=wrap;html=1;align=center;" parent="1" vertex="1">
          <mxGeometry x="-640" y="370" width="120" height="60" as="geometry" />
        </mxCell>
        <mxCell id="M6uvEseLIlFZfIpXj4Gl-213" style="edgeStyle=orthogonalEdgeStyle;fontSize=12;html=1;endArrow=ERzeroToMany;endFill=1;rounded=0;exitX=1;exitY=0.5;exitDx=0;exitDy=0;" parent="1" source="yVgPqFf_LlmDnyE8OUgT-4" target="M6uvEseLIlFZfIpXj4Gl-124" edge="1">
          <mxGeometry relative="1" as="geometry">
            <mxPoint x="439.79411764705765" y="706.3529411764707" as="sourcePoint" />
            <Array as="points">
              <mxPoint x="400" y="726" />
              <mxPoint x="400" y="690" />
              <mxPoint x="635" y="690" />
            </Array>
          </mxGeometry>
        </mxCell>
        <mxCell id="M6uvEseLIlFZfIpXj4Gl-214" style="edgeStyle=orthogonalEdgeStyle;fontSize=12;html=1;endArrow=ERmandOne;rounded=0;exitX=0;exitY=0.5;exitDx=0;exitDy=0;" parent="1" source="yVgPqFf_LlmDnyE8OUgT-1" target="M6uvEseLIlFZfIpXj4Gl-5" edge="1">
          <mxGeometry relative="1" as="geometry">
            <Array as="points">
              <mxPoint x="-70" y="700" />
              <mxPoint x="-230" y="700" />
            </Array>
            <mxPoint x="310" y="700" as="sourcePoint" />
          </mxGeometry>
        </mxCell>
        <mxCell id="M6uvEseLIlFZfIpXj4Gl-218" style="edgeStyle=orthogonalEdgeStyle;fontSize=12;html=1;endArrow=ERzeroToMany;endFill=1;rounded=0;entryX=0.75;entryY=1;entryDx=0;entryDy=0;" parent="1" source="M6uvEseLIlFZfIpXj4Gl-217" target="M6uvEseLIlFZfIpXj4Gl-124" edge="1">
          <mxGeometry relative="1" as="geometry">
            <Array as="points">
              <mxPoint x="540" y="716.25" />
              <mxPoint x="652" y="716.25" />
            </Array>
          </mxGeometry>
        </mxCell>
        <mxCell id="M6uvEseLIlFZfIpXj4Gl-219" style="edgeStyle=orthogonalEdgeStyle;fontSize=12;html=1;endArrow=ERmandOne;endFill=1;rounded=0;entryX=1;entryY=0.25;entryDx=0;entryDy=0;exitX=0.5;exitY=1;exitDx=0;exitDy=0;" parent="1" source="M6uvEseLIlFZfIpXj4Gl-217" target="M6uvEseLIlFZfIpXj4Gl-150" edge="1">
          <mxGeometry relative="1" as="geometry">
            <mxPoint x="770" y="1016.25" as="targetPoint" />
            <Array as="points">
              <mxPoint x="540" y="1023.25" />
            </Array>
          </mxGeometry>
        </mxCell>
        <mxCell id="M6uvEseLIlFZfIpXj4Gl-217" value="has" style="shape=rhombus;perimeter=rhombusPerimeter;whiteSpace=wrap;html=1;align=center;" parent="1" vertex="1">
          <mxGeometry x="480" y="756.25" width="120" height="60" as="geometry" />
        </mxCell>
        <mxCell id="M6uvEseLIlFZfIpXj4Gl-224" value="&amp;nbsp; id&amp;nbsp;&amp;nbsp;" style="ellipse;whiteSpace=wrap;html=1;align=center;fontStyle=4;" parent="1" vertex="1">
          <mxGeometry x="820" y="846.25" width="100" height="40" as="geometry" />
        </mxCell>
        <mxCell id="M6uvEseLIlFZfIpXj4Gl-225" style="edgeStyle=orthogonalEdgeStyle;rounded=0;orthogonalLoop=1;jettySize=auto;html=1;entryX=1;entryY=0.5;entryDx=0;entryDy=0;" parent="1" source="M6uvEseLIlFZfIpXj4Gl-227" target="M6uvEseLIlFZfIpXj4Gl-228" edge="1">
          <mxGeometry relative="1" as="geometry">
            <Array as="points">
              <mxPoint x="970" y="936.25" />
              <mxPoint x="970" y="816.25" />
            </Array>
          </mxGeometry>
        </mxCell>
        <mxCell id="M6uvEseLIlFZfIpXj4Gl-227" value="order" style="rounded=1;arcSize=10;whiteSpace=wrap;html=1;align=center;" parent="1" vertex="1">
          <mxGeometry x="980" y="936.25" width="70" height="30" as="geometry" />
        </mxCell>
        <mxCell id="M6uvEseLIlFZfIpXj4Gl-228" value="placed_time" style="ellipse;whiteSpace=wrap;html=1;align=center;" parent="1" vertex="1">
          <mxGeometry x="850" y="796.25" width="100" height="40" as="geometry" />
        </mxCell>
        <mxCell id="M6uvEseLIlFZfIpXj4Gl-231" value="status" style="ellipse;whiteSpace=wrap;html=1;align=center;" parent="1" vertex="1">
          <mxGeometry x="820" y="896.25" width="100" height="40" as="geometry" />
        </mxCell>
        <mxCell id="M6uvEseLIlFZfIpXj4Gl-232" style="edgeStyle=orthogonalEdgeStyle;rounded=0;orthogonalLoop=1;jettySize=auto;html=1;entryX=0.943;entryY=0.669;entryDx=0;entryDy=0;entryPerimeter=0;" parent="1" source="M6uvEseLIlFZfIpXj4Gl-227" target="M6uvEseLIlFZfIpXj4Gl-231" edge="1">
          <mxGeometry relative="1" as="geometry" />
        </mxCell>
        <mxCell id="M6uvEseLIlFZfIpXj4Gl-233" style="edgeStyle=orthogonalEdgeStyle;rounded=0;orthogonalLoop=1;jettySize=auto;html=1;entryX=0.993;entryY=0.551;entryDx=0;entryDy=0;entryPerimeter=0;" parent="1" source="M6uvEseLIlFZfIpXj4Gl-227" target="M6uvEseLIlFZfIpXj4Gl-224" edge="1">
          <mxGeometry relative="1" as="geometry">
            <Array as="points">
              <mxPoint x="960" y="946.25" />
              <mxPoint x="960" y="868.25" />
            </Array>
          </mxGeometry>
        </mxCell>
        <mxCell id="M6uvEseLIlFZfIpXj4Gl-235" value="&lt;span style=&quot;border-bottom: 1px dotted&quot;&gt;userId&lt;/span&gt;" style="ellipse;whiteSpace=wrap;html=1;align=center;" parent="1" vertex="1">
          <mxGeometry x="830" y="956.25" width="100" height="40" as="geometry" />
        </mxCell>
        <mxCell id="M6uvEseLIlFZfIpXj4Gl-236" style="edgeStyle=orthogonalEdgeStyle;rounded=0;orthogonalLoop=1;jettySize=auto;html=1;exitX=0;exitY=0.75;exitDx=0;exitDy=0;entryX=1;entryY=0.5;entryDx=0;entryDy=0;" parent="1" source="M6uvEseLIlFZfIpXj4Gl-227" target="M6uvEseLIlFZfIpXj4Gl-235" edge="1">
          <mxGeometry relative="1" as="geometry" />
        </mxCell>
        <mxCell id="M6uvEseLIlFZfIpXj4Gl-249" style="edgeStyle=orthogonalEdgeStyle;rounded=0;orthogonalLoop=1;jettySize=auto;html=1;entryX=0;entryY=1;entryDx=0;entryDy=0;" parent="1" source="M6uvEseLIlFZfIpXj4Gl-240" target="M6uvEseLIlFZfIpXj4Gl-247" edge="1">
          <mxGeometry relative="1" as="geometry">
            <Array as="points">
              <mxPoint x="1140" y="670.25" />
              <mxPoint x="1140" y="670.25" />
            </Array>
          </mxGeometry>
        </mxCell>
        <mxCell id="M6uvEseLIlFZfIpXj4Gl-264" style="fontSize=12;html=1;endArrow=ERzeroToMany;endFill=1;rounded=0;edgeStyle=orthogonalEdgeStyle;entryX=0.75;entryY=0;entryDx=0;entryDy=0;" parent="1" source="M6uvEseLIlFZfIpXj4Gl-240" target="M6uvEseLIlFZfIpXj4Gl-227" edge="1">
          <mxGeometry relative="1" as="geometry">
            <mxPoint x="1030" y="916.25" as="targetPoint" />
            <Array as="points">
              <mxPoint x="1033" y="816.25" />
            </Array>
          </mxGeometry>
        </mxCell>
        <mxCell id="igc6wY87mEMWCfnMQ46z-5" style="edgeStyle=orthogonalEdgeStyle;rounded=0;orthogonalLoop=1;jettySize=auto;html=1;entryX=0;entryY=0.5;entryDx=0;entryDy=0;" parent="1" source="M6uvEseLIlFZfIpXj4Gl-240" target="M6uvEseLIlFZfIpXj4Gl-241" edge="1">
          <mxGeometry relative="1" as="geometry">
            <Array as="points">
              <mxPoint x="1065" y="596.25" />
            </Array>
          </mxGeometry>
        </mxCell>
        <mxCell id="bQkvv9pmpDj_4s0H_Ojs-32" style="edgeStyle=orthogonalEdgeStyle;rounded=0;orthogonalLoop=1;jettySize=auto;html=1;entryX=0;entryY=0.5;entryDx=0;entryDy=0;" parent="1" source="M6uvEseLIlFZfIpXj4Gl-240" target="bQkvv9pmpDj_4s0H_Ojs-30" edge="1">
          <mxGeometry relative="1" as="geometry">
            <Array as="points">
              <mxPoint x="1080" y="756.25" />
            </Array>
          </mxGeometry>
        </mxCell>
        <mxCell id="M6uvEseLIlFZfIpXj4Gl-240" value="product_order" style="shape=ext;margin=3;double=1;whiteSpace=wrap;html=1;align=center;" parent="1" vertex="1">
          <mxGeometry x="1020" y="666.25" width="90" height="30" as="geometry" />
        </mxCell>
        <mxCell id="M6uvEseLIlFZfIpXj4Gl-241" value="quantity" style="ellipse;whiteSpace=wrap;html=1;align=center;" parent="1" vertex="1">
          <mxGeometry x="1150" y="576.25" width="100" height="40" as="geometry" />
        </mxCell>
        <mxCell id="M6uvEseLIlFZfIpXj4Gl-245" value="&lt;span style=&quot;border-bottom: 1px dotted&quot;&gt;productId&lt;/span&gt;" style="ellipse;whiteSpace=wrap;html=1;align=center;" parent="1" vertex="1">
          <mxGeometry x="1130" y="686.25" width="100" height="40" as="geometry" />
        </mxCell>
        <mxCell id="M6uvEseLIlFZfIpXj4Gl-246" style="edgeStyle=orthogonalEdgeStyle;rounded=0;orthogonalLoop=1;jettySize=auto;html=1;entryX=0.074;entryY=0.782;entryDx=0;entryDy=0;entryPerimeter=0;" parent="1" target="M6uvEseLIlFZfIpXj4Gl-245" edge="1">
          <mxGeometry relative="1" as="geometry">
            <Array as="points">
              <mxPoint x="1090" y="696.25" />
              <mxPoint x="1090" y="716.25" />
              <mxPoint x="1130" y="716.25" />
              <mxPoint x="1130" y="717.25" />
            </Array>
            <mxPoint x="1090" y="696.25" as="sourcePoint" />
            <mxPoint x="1130" y="716.25" as="targetPoint" />
          </mxGeometry>
        </mxCell>
        <mxCell id="M6uvEseLIlFZfIpXj4Gl-247" value="&lt;span style=&quot;border-bottom: 1px dotted&quot;&gt;orderId&lt;/span&gt;" style="ellipse;whiteSpace=wrap;html=1;align=center;" parent="1" vertex="1">
          <mxGeometry x="1130" y="636.25" width="100" height="40" as="geometry" />
        </mxCell>
        <mxCell id="M6uvEseLIlFZfIpXj4Gl-254" style="edgeStyle=orthogonalEdgeStyle;fontSize=12;html=1;endArrow=ERzeroToMany;endFill=1;rounded=0;" parent="1" source="M6uvEseLIlFZfIpXj4Gl-252" target="M6uvEseLIlFZfIpXj4Gl-227" edge="1">
          <mxGeometry relative="1" as="geometry" />
        </mxCell>
        <mxCell id="M6uvEseLIlFZfIpXj4Gl-252" value="places" style="shape=rhombus;perimeter=rhombusPerimeter;whiteSpace=wrap;html=1;align=center;" parent="1" vertex="1">
          <mxGeometry x="680" y="1036.25" width="120" height="60" as="geometry" />
        </mxCell>
        <mxCell id="M6uvEseLIlFZfIpXj4Gl-255" style="edgeStyle=orthogonalEdgeStyle;fontSize=12;html=1;endArrow=ERmandOne;endFill=1;rounded=0;exitX=0;exitY=0.5;exitDx=0;exitDy=0;" parent="1" edge="1" source="M6uvEseLIlFZfIpXj4Gl-252">
          <mxGeometry relative="1" as="geometry">
            <mxPoint x="300" y="1060" as="sourcePoint" />
            <mxPoint x="-239.99652173913006" y="519.9999999999999" as="targetPoint" />
            <Array as="points">
              <mxPoint x="680" y="1060" />
              <mxPoint x="-240" y="1060" />
            </Array>
          </mxGeometry>
        </mxCell>
        <mxCell id="M6uvEseLIlFZfIpXj4Gl-260" style="edgeStyle=orthogonalEdgeStyle;fontSize=12;html=1;endArrow=ERoneToMany;rounded=0;entryX=1;entryY=0.25;entryDx=0;entryDy=0;exitX=0;exitY=0.5;exitDx=0;exitDy=0;" parent="1" source="M6uvEseLIlFZfIpXj4Gl-240" target="M6uvEseLIlFZfIpXj4Gl-124" edge="1">
          <mxGeometry relative="1" as="geometry">
            <mxPoint x="990.0000000000005" y="691.2500000000002" as="sourcePoint" />
            <mxPoint x="990.0000000000005" y="601.2499999999999" as="targetPoint" />
            <Array as="points">
              <mxPoint x="990" y="681.25" />
              <mxPoint x="990" y="624.25" />
            </Array>
          </mxGeometry>
        </mxCell>
        <mxCell id="M6uvEseLIlFZfIpXj4Gl-266" value="&amp;nbsp; id&amp;nbsp;&amp;nbsp;" style="ellipse;whiteSpace=wrap;html=1;align=center;fontStyle=4;" parent="1" vertex="1">
          <mxGeometry x="-140" y="-10" width="100" height="40" as="geometry" />
        </mxCell>
        <mxCell id="M6uvEseLIlFZfIpXj4Gl-268" style="edgeStyle=orthogonalEdgeStyle;rounded=0;orthogonalLoop=1;jettySize=auto;html=1;entryX=0;entryY=1;entryDx=0;entryDy=0;" parent="1" source="M6uvEseLIlFZfIpXj4Gl-269" target="M6uvEseLIlFZfIpXj4Gl-274" edge="1">
          <mxGeometry relative="1" as="geometry">
            <Array as="points">
              <mxPoint x="-130" y="84" />
            </Array>
          </mxGeometry>
        </mxCell>
        <mxCell id="M6uvEseLIlFZfIpXj4Gl-279" style="edgeStyle=orthogonalEdgeStyle;rounded=0;orthogonalLoop=1;jettySize=auto;html=1;entryX=0;entryY=0.5;entryDx=0;entryDy=0;" parent="1" source="M6uvEseLIlFZfIpXj4Gl-269" target="M6uvEseLIlFZfIpXj4Gl-270" edge="1">
          <mxGeometry relative="1" as="geometry">
            <Array as="points">
              <mxPoint x="-195" y="-40" />
            </Array>
          </mxGeometry>
        </mxCell>
        <mxCell id="igc6wY87mEMWCfnMQ46z-22" style="edgeStyle=orthogonalEdgeStyle;rounded=0;orthogonalLoop=1;jettySize=auto;html=1;entryX=0;entryY=0.5;entryDx=0;entryDy=0;" parent="1" source="M6uvEseLIlFZfIpXj4Gl-269" target="M6uvEseLIlFZfIpXj4Gl-272" edge="1">
          <mxGeometry relative="1" as="geometry">
            <mxPoint x="-130" y="160" as="targetPoint" />
            <Array as="points">
              <mxPoint x="-150" y="120" />
            </Array>
          </mxGeometry>
        </mxCell>
        <mxCell id="M6uvEseLIlFZfIpXj4Gl-269" value="feedback" style="rounded=1;arcSize=10;whiteSpace=wrap;html=1;align=center;" parent="1" vertex="1">
          <mxGeometry x="-240" y="80" width="90" height="30" as="geometry" />
        </mxCell>
        <mxCell id="M6uvEseLIlFZfIpXj4Gl-270" value="rating" style="ellipse;whiteSpace=wrap;html=1;align=center;" parent="1" vertex="1">
          <mxGeometry x="-110" y="-60" width="100" height="40" as="geometry" />
        </mxCell>
        <mxCell id="M6uvEseLIlFZfIpXj4Gl-271" style="edgeStyle=orthogonalEdgeStyle;rounded=0;orthogonalLoop=1;jettySize=auto;html=1;entryX=0;entryY=0.5;entryDx=0;entryDy=0;" parent="1" source="M6uvEseLIlFZfIpXj4Gl-269" target="M6uvEseLIlFZfIpXj4Gl-266" edge="1">
          <mxGeometry relative="1" as="geometry">
            <Array as="points">
              <mxPoint x="-170" y="10" />
            </Array>
          </mxGeometry>
        </mxCell>
        <mxCell id="M6uvEseLIlFZfIpXj4Gl-272" value="&lt;span style=&quot;border-bottom: 1px dotted&quot;&gt;productId&lt;/span&gt;" style="ellipse;whiteSpace=wrap;html=1;align=center;" parent="1" vertex="1">
          <mxGeometry x="-125" y="100" width="100" height="40" as="geometry" />
        </mxCell>
        <mxCell id="M6uvEseLIlFZfIpXj4Gl-274" value="&lt;span style=&quot;border-bottom: 1px dotted&quot;&gt;userId&lt;/span&gt;" style="ellipse;whiteSpace=wrap;html=1;align=center;" parent="1" vertex="1">
          <mxGeometry x="-130" y="50" width="100" height="40" as="geometry" />
        </mxCell>
        <mxCell id="M6uvEseLIlFZfIpXj4Gl-276" value="reviews" style="ellipse;whiteSpace=wrap;html=1;align=center;" parent="1" vertex="1">
          <mxGeometry x="-310" y="-30" width="100" height="40" as="geometry" />
        </mxCell>
        <mxCell id="M6uvEseLIlFZfIpXj4Gl-277" style="edgeStyle=orthogonalEdgeStyle;rounded=0;orthogonalLoop=1;jettySize=auto;html=1;entryX=0.336;entryY=1.079;entryDx=0;entryDy=0;entryPerimeter=0;" parent="1" source="M6uvEseLIlFZfIpXj4Gl-269" target="M6uvEseLIlFZfIpXj4Gl-276" edge="1">
          <mxGeometry relative="1" as="geometry">
            <Array as="points">
              <mxPoint x="-276" y="95" />
              <mxPoint x="-276" y="45" />
            </Array>
          </mxGeometry>
        </mxCell>
        <mxCell id="M6uvEseLIlFZfIpXj4Gl-282" style="edgeStyle=orthogonalEdgeStyle;fontSize=12;html=1;endArrow=ERmandOne;endFill=1;rounded=0;exitX=0.5;exitY=1;exitDx=0;exitDy=0;" parent="1" source="M6uvEseLIlFZfIpXj4Gl-284" edge="1">
          <mxGeometry relative="1" as="geometry">
            <mxPoint x="-217.02999999999977" y="110" as="sourcePoint" />
            <mxPoint x="-209.99969696969677" y="490" as="targetPoint" />
            <Array as="points">
              <mxPoint x="-195" y="380" />
              <mxPoint x="-210" y="380" />
            </Array>
          </mxGeometry>
        </mxCell>
        <mxCell id="igc6wY87mEMWCfnMQ46z-25" style="fontSize=12;html=1;endArrow=ERzeroToMany;endFill=1;rounded=0;entryX=0.5;entryY=1;entryDx=0;entryDy=0;exitX=0.5;exitY=0;exitDx=0;exitDy=0;" parent="1" source="M6uvEseLIlFZfIpXj4Gl-284" target="M6uvEseLIlFZfIpXj4Gl-269" edge="1">
          <mxGeometry relative="1" as="geometry" />
        </mxCell>
        <mxCell id="M6uvEseLIlFZfIpXj4Gl-284" value="gives" style="shape=rhombus;perimeter=rhombusPerimeter;whiteSpace=wrap;html=1;align=center;" parent="1" vertex="1">
          <mxGeometry x="-255" y="205" width="120" height="60" as="geometry" />
        </mxCell>
        <mxCell id="M6uvEseLIlFZfIpXj4Gl-286" value="date_submited" style="ellipse;whiteSpace=wrap;html=1;align=center;" parent="1" vertex="1">
          <mxGeometry x="-390" y="40" width="100" height="40" as="geometry" />
        </mxCell>
        <mxCell id="M6uvEseLIlFZfIpXj4Gl-287" style="edgeStyle=orthogonalEdgeStyle;rounded=0;orthogonalLoop=1;jettySize=auto;html=1;exitX=0;exitY=0.75;exitDx=0;exitDy=0;entryX=0.3;entryY=1;entryDx=0;entryDy=0;entryPerimeter=0;" parent="1" source="M6uvEseLIlFZfIpXj4Gl-269" target="M6uvEseLIlFZfIpXj4Gl-286" edge="1">
          <mxGeometry relative="1" as="geometry" />
        </mxCell>
        <mxCell id="M6uvEseLIlFZfIpXj4Gl-291" style="edgeStyle=orthogonalEdgeStyle;fontSize=12;html=1;endArrow=ERmandOne;endFill=1;rounded=0;entryX=0.25;entryY=1;entryDx=0;entryDy=0;exitX=0.5;exitY=0;exitDx=0;exitDy=0;" parent="1" source="M6uvEseLIlFZfIpXj4Gl-289" target="M6uvEseLIlFZfIpXj4Gl-124" edge="1">
          <mxGeometry relative="1" as="geometry">
            <Array as="points">
              <mxPoint x="30" y="660" />
              <mxPoint x="237" y="660" />
            </Array>
          </mxGeometry>
        </mxCell>
        <mxCell id="M6uvEseLIlFZfIpXj4Gl-289" value="has" style="shape=rhombus;perimeter=rhombusPerimeter;whiteSpace=wrap;html=1;align=center;" parent="1" vertex="1">
          <mxGeometry x="-30" y="255" width="120" height="60" as="geometry" />
        </mxCell>
        <mxCell id="M6uvEseLIlFZfIpXj4Gl-290" style="edgeStyle=orthogonalEdgeStyle;fontSize=12;html=1;endArrow=ERzeroToMany;endFill=1;rounded=0;exitX=0.5;exitY=0;exitDx=0;exitDy=0;" parent="1" source="M6uvEseLIlFZfIpXj4Gl-289" edge="1">
          <mxGeometry relative="1" as="geometry">
            <mxPoint x="-165" y="110" as="targetPoint" />
            <Array as="points">
              <mxPoint x="30" y="200" />
              <mxPoint x="-165" y="200" />
            </Array>
          </mxGeometry>
        </mxCell>
        <mxCell id="M6uvEseLIlFZfIpXj4Gl-297" value="&amp;nbsp; id&amp;nbsp;&amp;nbsp;" style="ellipse;whiteSpace=wrap;html=1;align=center;fontStyle=4;" parent="1" vertex="1">
          <mxGeometry x="-670" y="950" width="100" height="40" as="geometry" />
        </mxCell>
        <mxCell id="M6uvEseLIlFZfIpXj4Gl-300" value="cart" style="rounded=1;arcSize=10;whiteSpace=wrap;html=1;align=center;" parent="1" vertex="1">
          <mxGeometry x="-520" y="1010" width="70" height="30" as="geometry" />
        </mxCell>
        <mxCell id="M6uvEseLIlFZfIpXj4Gl-305" style="edgeStyle=orthogonalEdgeStyle;rounded=0;orthogonalLoop=1;jettySize=auto;html=1;entryX=1;entryY=0.5;entryDx=0;entryDy=0;" parent="1" source="M6uvEseLIlFZfIpXj4Gl-300" target="M6uvEseLIlFZfIpXj4Gl-309" edge="1">
          <mxGeometry relative="1" as="geometry">
            <mxPoint x="-585.7" y="996.7599999999998" as="targetPoint" />
          </mxGeometry>
        </mxCell>
        <mxCell id="M6uvEseLIlFZfIpXj4Gl-306" style="edgeStyle=orthogonalEdgeStyle;rounded=0;orthogonalLoop=1;jettySize=auto;html=1;" parent="1" source="M6uvEseLIlFZfIpXj4Gl-300" edge="1">
          <mxGeometry relative="1" as="geometry">
            <Array as="points">
              <mxPoint x="-485" y="970" />
              <mxPoint x="-571" y="970" />
            </Array>
            <mxPoint x="-570" y="970" as="targetPoint" />
          </mxGeometry>
        </mxCell>
        <mxCell id="M6uvEseLIlFZfIpXj4Gl-309" value="&lt;span style=&quot;border-bottom: 1px dotted&quot;&gt;userId&lt;/span&gt;" style="ellipse;whiteSpace=wrap;html=1;align=center;" parent="1" vertex="1">
          <mxGeometry x="-680" y="1005" width="100" height="40" as="geometry" />
        </mxCell>
        <mxCell id="M6uvEseLIlFZfIpXj4Gl-341" style="edgeStyle=orthogonalEdgeStyle;rounded=0;orthogonalLoop=1;jettySize=auto;html=1;entryX=0;entryY=0.5;entryDx=0;entryDy=0;exitX=0.942;exitY=1.014;exitDx=0;exitDy=0;exitPerimeter=0;" parent="1" source="M6uvEseLIlFZfIpXj4Gl-323" target="M6uvEseLIlFZfIpXj4Gl-339" edge="1">
          <mxGeometry relative="1" as="geometry">
            <Array as="points">
              <mxPoint x="360" y="1256.25" />
            </Array>
          </mxGeometry>
        </mxCell>
        <mxCell id="igc6wY87mEMWCfnMQ46z-21" style="edgeStyle=orthogonalEdgeStyle;rounded=0;orthogonalLoop=1;jettySize=auto;html=1;" parent="1" source="M6uvEseLIlFZfIpXj4Gl-323" target="M6uvEseLIlFZfIpXj4Gl-336" edge="1">
          <mxGeometry relative="1" as="geometry">
            <Array as="points">
              <mxPoint x="323" y="1186.25" />
              <mxPoint x="323" y="1186.25" />
            </Array>
          </mxGeometry>
        </mxCell>
        <mxCell id="bQkvv9pmpDj_4s0H_Ojs-27" style="edgeStyle=orthogonalEdgeStyle;rounded=0;orthogonalLoop=1;jettySize=auto;html=1;" parent="1" source="M6uvEseLIlFZfIpXj4Gl-323" target="bQkvv9pmpDj_4s0H_Ojs-26" edge="1">
          <mxGeometry relative="1" as="geometry">
            <Array as="points">
              <mxPoint x="300" y="1246.25" />
              <mxPoint x="150" y="1246.25" />
            </Array>
          </mxGeometry>
        </mxCell>
        <mxCell id="bQkvv9pmpDj_4s0H_Ojs-28" style="edgeStyle=orthogonalEdgeStyle;rounded=0;orthogonalLoop=1;jettySize=auto;html=1;entryX=0.5;entryY=1;entryDx=0;entryDy=0;" parent="1" source="M6uvEseLIlFZfIpXj4Gl-323" target="bQkvv9pmpDj_4s0H_Ojs-25" edge="1">
          <mxGeometry relative="1" as="geometry">
            <Array as="points">
              <mxPoint x="460" y="1206.25" />
            </Array>
          </mxGeometry>
        </mxCell>
        <mxCell id="M6uvEseLIlFZfIpXj4Gl-323" value="product_cart" style="shape=ext;margin=3;double=1;whiteSpace=wrap;html=1;align=center;" parent="1" vertex="1">
          <mxGeometry x="280" y="1206.25" width="85" height="30" as="geometry" />
        </mxCell>
        <mxCell id="M6uvEseLIlFZfIpXj4Gl-324" style="edgeStyle=orthogonalEdgeStyle;rounded=0;orthogonalLoop=1;jettySize=auto;html=1;entryX=1;entryY=0.5;entryDx=0;entryDy=0;" parent="1" source="M6uvEseLIlFZfIpXj4Gl-323" target="M6uvEseLIlFZfIpXj4Gl-326" edge="1">
          <mxGeometry relative="1" as="geometry">
            <mxPoint x="229.29999999999995" y="1193.0099999999998" as="targetPoint" />
            <Array as="points">
              <mxPoint x="247" y="1210" />
              <mxPoint x="247" y="1196" />
            </Array>
          </mxGeometry>
        </mxCell>
        <mxCell id="M6uvEseLIlFZfIpXj4Gl-326" value="&lt;span style=&quot;border-bottom: 1px dotted&quot;&gt;cartId&lt;/span&gt;" style="ellipse;whiteSpace=wrap;html=1;align=center;" parent="1" vertex="1">
          <mxGeometry x="115" y="1176.25" width="100" height="40" as="geometry" />
        </mxCell>
        <mxCell id="M6uvEseLIlFZfIpXj4Gl-331" style="edgeStyle=orthogonalEdgeStyle;fontSize=12;html=1;endArrow=ERzeroToOne;rounded=0;exitX=0.5;exitY=1;exitDx=0;exitDy=0;" parent="1" source="M6uvEseLIlFZfIpXj4Gl-329" target="M6uvEseLIlFZfIpXj4Gl-300" edge="1">
          <mxGeometry relative="1" as="geometry">
            <Array as="points">
              <mxPoint x="-350" y="925" />
              <mxPoint x="-460" y="925" />
            </Array>
          </mxGeometry>
        </mxCell>
        <mxCell id="M6uvEseLIlFZfIpXj4Gl-329" value="has" style="shape=rhombus;perimeter=rhombusPerimeter;whiteSpace=wrap;html=1;align=center;" parent="1" vertex="1">
          <mxGeometry x="-410" y="780" width="120" height="60" as="geometry" />
        </mxCell>
        <mxCell id="M6uvEseLIlFZfIpXj4Gl-330" style="edgeStyle=orthogonalEdgeStyle;fontSize=12;html=1;endArrow=ERmandOne;rounded=0;exitX=1;exitY=0.5;exitDx=0;exitDy=0;" parent="1" source="M6uvEseLIlFZfIpXj4Gl-329" target="M6uvEseLIlFZfIpXj4Gl-5" edge="1">
          <mxGeometry relative="1" as="geometry">
            <Array as="points">
              <mxPoint x="-260" y="810" />
            </Array>
          </mxGeometry>
        </mxCell>
        <mxCell id="M6uvEseLIlFZfIpXj4Gl-335" style="edgeStyle=orthogonalEdgeStyle;fontSize=12;html=1;endArrow=ERoneToMany;endFill=1;rounded=0;exitX=1;exitY=0.5;exitDx=0;exitDy=0;" parent="1" source="M6uvEseLIlFZfIpXj4Gl-323" edge="1">
          <mxGeometry relative="1" as="geometry">
            <mxPoint x="370" y="1221.25" as="sourcePoint" />
            <mxPoint x="665" y="646.25" as="targetPoint" />
          </mxGeometry>
        </mxCell>
        <mxCell id="M6uvEseLIlFZfIpXj4Gl-336" value="&lt;span style=&quot;border-bottom: 1px dotted&quot;&gt;productId&lt;/span&gt;" style="ellipse;whiteSpace=wrap;html=1;align=center;" parent="1" vertex="1">
          <mxGeometry x="280" y="1136.25" width="100" height="40" as="geometry" />
        </mxCell>
        <mxCell id="M6uvEseLIlFZfIpXj4Gl-337" value="quantity" style="ellipse;whiteSpace=wrap;html=1;align=center;" parent="1" vertex="1">
          <mxGeometry x="330" y="1296.25" width="100" height="40" as="geometry" />
        </mxCell>
        <mxCell id="M6uvEseLIlFZfIpXj4Gl-338" value="date_added" style="ellipse;whiteSpace=wrap;html=1;align=center;" parent="1" vertex="1">
          <mxGeometry x="215" y="1296.25" width="100" height="40" as="geometry" />
        </mxCell>
        <mxCell id="M6uvEseLIlFZfIpXj4Gl-339" value="status" style="ellipse;whiteSpace=wrap;html=1;align=center;" parent="1" vertex="1">
          <mxGeometry x="400" y="1236.25" width="100" height="40" as="geometry" />
        </mxCell>
        <mxCell id="M6uvEseLIlFZfIpXj4Gl-342" style="edgeStyle=orthogonalEdgeStyle;rounded=0;orthogonalLoop=1;jettySize=auto;html=1;exitX=0.75;exitY=1;exitDx=0;exitDy=0;" parent="1" source="M6uvEseLIlFZfIpXj4Gl-323" target="M6uvEseLIlFZfIpXj4Gl-337" edge="1">
          <mxGeometry relative="1" as="geometry">
            <Array as="points">
              <mxPoint x="344" y="1286.25" />
              <mxPoint x="344" y="1286.25" />
            </Array>
          </mxGeometry>
        </mxCell>
        <mxCell id="M6uvEseLIlFZfIpXj4Gl-344" style="edgeStyle=orthogonalEdgeStyle;fontSize=12;html=1;endArrow=ERzeroToMany;endFill=1;rounded=0;" parent="1" source="M6uvEseLIlFZfIpXj4Gl-323" target="M6uvEseLIlFZfIpXj4Gl-300" edge="1">
          <mxGeometry relative="1" as="geometry">
            <Array as="points">
              <mxPoint x="-493" y="1220" />
            </Array>
          </mxGeometry>
        </mxCell>
        <mxCell id="igc6wY87mEMWCfnMQ46z-8" style="edgeStyle=orthogonalEdgeStyle;rounded=0;orthogonalLoop=1;jettySize=auto;html=1;entryX=0.1;entryY=0.75;entryDx=0;entryDy=0;entryPerimeter=0;exitX=0.897;exitY=0.006;exitDx=0;exitDy=0;exitPerimeter=0;" parent="1" source="M6uvEseLIlFZfIpXj4Gl-46" target="M6uvEseLIlFZfIpXj4Gl-57" edge="1">
          <mxGeometry relative="1" as="geometry">
            <Array as="points">
              <mxPoint x="-690" y="630" />
            </Array>
          </mxGeometry>
        </mxCell>
        <mxCell id="M6uvEseLIlFZfIpXj4Gl-177" value="tags" style="ellipse;shape=doubleEllipse;margin=3;whiteSpace=wrap;html=1;align=center;" parent="1" vertex="1">
          <mxGeometry x="720" y="506.25" width="120" height="30" as="geometry" />
        </mxCell>
        <mxCell id="igc6wY87mEMWCfnMQ46z-11" style="edgeStyle=orthogonalEdgeStyle;rounded=0;orthogonalLoop=1;jettySize=auto;html=1;entryX=0.322;entryY=0.928;entryDx=0;entryDy=0;entryPerimeter=0;exitX=0.634;exitY=0.014;exitDx=0;exitDy=0;exitPerimeter=0;" parent="1" source="M6uvEseLIlFZfIpXj4Gl-124" target="M6uvEseLIlFZfIpXj4Gl-165" edge="1">
          <mxGeometry relative="1" as="geometry">
            <Array as="points">
              <mxPoint x="644" y="492.25" />
              <mxPoint x="644" y="492.25" />
            </Array>
          </mxGeometry>
        </mxCell>
        <mxCell id="igc6wY87mEMWCfnMQ46z-13" style="edgeStyle=orthogonalEdgeStyle;rounded=0;orthogonalLoop=1;jettySize=auto;html=1;entryX=-0.019;entryY=0.611;entryDx=0;entryDy=0;entryPerimeter=0;exitX=0.897;exitY=0.003;exitDx=0;exitDy=0;exitPerimeter=0;" parent="1" source="M6uvEseLIlFZfIpXj4Gl-124" edge="1">
          <mxGeometry relative="1" as="geometry">
            <mxPoint x="667.1000000000001" y="616.25" as="sourcePoint" />
            <mxPoint x="719.9999999999998" y="524.5799999999999" as="targetPoint" />
            <Array as="points">
              <mxPoint x="663" y="524.25" />
            </Array>
          </mxGeometry>
        </mxCell>
        <mxCell id="igc6wY87mEMWCfnMQ46z-14" style="edgeStyle=orthogonalEdgeStyle;rounded=0;orthogonalLoop=1;jettySize=auto;html=1;entryX=0.643;entryY=1.008;entryDx=0;entryDy=0;entryPerimeter=0;" parent="1" source="M6uvEseLIlFZfIpXj4Gl-5" target="M6uvEseLIlFZfIpXj4Gl-8" edge="1">
          <mxGeometry relative="1" as="geometry">
            <Array as="points">
              <mxPoint x="-235" y="425" />
              <mxPoint x="-236" y="425" />
            </Array>
          </mxGeometry>
        </mxCell>
        <mxCell id="igc6wY87mEMWCfnMQ46z-15" style="edgeStyle=orthogonalEdgeStyle;rounded=0;orthogonalLoop=1;jettySize=auto;html=1;entryX=0.65;entryY=1;entryDx=0;entryDy=0;entryPerimeter=0;" parent="1" source="M6uvEseLIlFZfIpXj4Gl-5" target="M6uvEseLIlFZfIpXj4Gl-11" edge="1">
          <mxGeometry relative="1" as="geometry">
            <Array as="points">
              <mxPoint x="-270" y="440" />
            </Array>
          </mxGeometry>
        </mxCell>
        <mxCell id="igc6wY87mEMWCfnMQ46z-18" style="edgeStyle=orthogonalEdgeStyle;rounded=0;orthogonalLoop=1;jettySize=auto;html=1;entryX=0.382;entryY=1.041;entryDx=0;entryDy=0;entryPerimeter=0;" parent="1" source="M6uvEseLIlFZfIpXj4Gl-46" target="M6uvEseLIlFZfIpXj4Gl-55" edge="1">
          <mxGeometry relative="1" as="geometry">
            <Array as="points">
              <mxPoint x="-712" y="640" />
              <mxPoint x="-712" y="640" />
            </Array>
          </mxGeometry>
        </mxCell>
        <mxCell id="7U9PphhysYI-u7HBj0Kk-1" value="&amp;nbsp; id&amp;nbsp;&amp;nbsp;" style="ellipse;whiteSpace=wrap;html=1;align=center;fontStyle=4;" parent="1" vertex="1">
          <mxGeometry x="1470" y="846.25" width="100" height="40" as="geometry" />
        </mxCell>
        <mxCell id="7U9PphhysYI-u7HBj0Kk-13" style="edgeStyle=orthogonalEdgeStyle;rounded=0;orthogonalLoop=1;jettySize=auto;html=1;entryX=0.5;entryY=0;entryDx=0;entryDy=0;" parent="1" source="7U9PphhysYI-u7HBj0Kk-3" edge="1">
          <mxGeometry relative="1" as="geometry">
            <Array as="points">
              <mxPoint x="1380" y="1006.25" />
              <mxPoint x="1380" y="1006.25" />
            </Array>
            <mxPoint x="1380" y="1036.25" as="targetPoint" />
          </mxGeometry>
        </mxCell>
        <mxCell id="7U9PphhysYI-u7HBj0Kk-14" style="edgeStyle=orthogonalEdgeStyle;rounded=0;orthogonalLoop=1;jettySize=auto;html=1;entryX=0;entryY=0.5;entryDx=0;entryDy=0;" parent="1" source="7U9PphhysYI-u7HBj0Kk-3" target="7U9PphhysYI-u7HBj0Kk-10" edge="1">
          <mxGeometry relative="1" as="geometry">
            <Array as="points">
              <mxPoint x="1385" y="986.25" />
              <mxPoint x="1445" y="986.25" />
              <mxPoint x="1445" y="1036.25" />
            </Array>
          </mxGeometry>
        </mxCell>
        <mxCell id="7U9PphhysYI-u7HBj0Kk-17" style="edgeStyle=orthogonalEdgeStyle;rounded=0;orthogonalLoop=1;jettySize=auto;html=1;exitX=1;exitY=0;exitDx=0;exitDy=0;entryX=0;entryY=0.5;entryDx=0;entryDy=0;" parent="1" source="7U9PphhysYI-u7HBj0Kk-3" target="7U9PphhysYI-u7HBj0Kk-1" edge="1">
          <mxGeometry relative="1" as="geometry" />
        </mxCell>
        <mxCell id="7U9PphhysYI-u7HBj0Kk-18" style="edgeStyle=orthogonalEdgeStyle;rounded=0;orthogonalLoop=1;jettySize=auto;html=1;entryX=0;entryY=0.5;entryDx=0;entryDy=0;" parent="1" source="7U9PphhysYI-u7HBj0Kk-3" target="7U9PphhysYI-u7HBj0Kk-4" edge="1">
          <mxGeometry relative="1" as="geometry">
            <Array as="points">
              <mxPoint x="1400" y="806.25" />
            </Array>
          </mxGeometry>
        </mxCell>
        <mxCell id="7U9PphhysYI-u7HBj0Kk-19" style="edgeStyle=orthogonalEdgeStyle;rounded=0;orthogonalLoop=1;jettySize=auto;html=1;entryX=0;entryY=0.5;entryDx=0;entryDy=0;" parent="1" source="7U9PphhysYI-u7HBj0Kk-3" target="7U9PphhysYI-u7HBj0Kk-12" edge="1">
          <mxGeometry relative="1" as="geometry">
            <Array as="points">
              <mxPoint x="1380" y="736.25" />
            </Array>
          </mxGeometry>
        </mxCell>
        <mxCell id="7U9PphhysYI-u7HBj0Kk-3" value="invoice" style="rounded=1;arcSize=10;whiteSpace=wrap;html=1;align=center;" parent="1" vertex="1">
          <mxGeometry x="1350" y="931.25" width="70" height="30" as="geometry" />
        </mxCell>
        <mxCell id="7U9PphhysYI-u7HBj0Kk-4" value="payment_date" style="ellipse;whiteSpace=wrap;html=1;align=center;" parent="1" vertex="1">
          <mxGeometry x="1480" y="786.25" width="100" height="40" as="geometry" />
        </mxCell>
        <mxCell id="7U9PphhysYI-u7HBj0Kk-5" value="status" style="ellipse;whiteSpace=wrap;html=1;align=center;" parent="1" vertex="1">
          <mxGeometry x="1470" y="896.25" width="100" height="40" as="geometry" />
        </mxCell>
        <mxCell id="7U9PphhysYI-u7HBj0Kk-8" value="&lt;span style=&quot;border-bottom: 1px dotted&quot;&gt;orderId&lt;/span&gt;" style="ellipse;whiteSpace=wrap;html=1;align=center;" parent="1" vertex="1">
          <mxGeometry x="1480" y="956.25" width="100" height="40" as="geometry" />
        </mxCell>
        <mxCell id="7U9PphhysYI-u7HBj0Kk-10" value="paymentMethod" style="ellipse;whiteSpace=wrap;html=1;align=center;" parent="1" vertex="1">
          <mxGeometry x="1470" y="1016.25" width="100" height="40" as="geometry" />
        </mxCell>
        <mxCell id="7U9PphhysYI-u7HBj0Kk-12" value="total" style="ellipse;whiteSpace=wrap;html=1;align=center;dashed=1;" parent="1" vertex="1">
          <mxGeometry x="1470" y="716.25" width="100" height="40" as="geometry" />
        </mxCell>
        <mxCell id="7U9PphhysYI-u7HBj0Kk-15" style="edgeStyle=orthogonalEdgeStyle;rounded=0;orthogonalLoop=1;jettySize=auto;html=1;entryX=-0.018;entryY=0.397;entryDx=0;entryDy=0;entryPerimeter=0;" parent="1" source="7U9PphhysYI-u7HBj0Kk-3" target="7U9PphhysYI-u7HBj0Kk-8" edge="1">
          <mxGeometry relative="1" as="geometry">
            <Array as="points">
              <mxPoint x="1450" y="956.25" />
              <mxPoint x="1450" y="972.25" />
            </Array>
          </mxGeometry>
        </mxCell>
        <mxCell id="7U9PphhysYI-u7HBj0Kk-16" style="edgeStyle=orthogonalEdgeStyle;rounded=0;orthogonalLoop=1;jettySize=auto;html=1;entryX=0;entryY=0.75;entryDx=0;entryDy=0;entryPerimeter=0;" parent="1" source="7U9PphhysYI-u7HBj0Kk-3" target="7U9PphhysYI-u7HBj0Kk-5" edge="1">
          <mxGeometry relative="1" as="geometry" />
        </mxCell>
        <mxCell id="7U9PphhysYI-u7HBj0Kk-21" style="edgeStyle=orthogonalEdgeStyle;fontSize=12;html=1;endArrow=ERmandOne;endFill=1;rounded=0;" parent="1" source="7U9PphhysYI-u7HBj0Kk-20" target="M6uvEseLIlFZfIpXj4Gl-227" edge="1">
          <mxGeometry relative="1" as="geometry" />
        </mxCell>
        <mxCell id="7U9PphhysYI-u7HBj0Kk-22" style="edgeStyle=orthogonalEdgeStyle;fontSize=12;html=1;endArrow=ERmandOne;endFill=1;rounded=0;" parent="1" source="7U9PphhysYI-u7HBj0Kk-20" target="7U9PphhysYI-u7HBj0Kk-3" edge="1">
          <mxGeometry relative="1" as="geometry">
            <Array as="points">
              <mxPoint x="1320" y="951.25" />
              <mxPoint x="1320" y="951.25" />
            </Array>
          </mxGeometry>
        </mxCell>
        <mxCell id="7U9PphhysYI-u7HBj0Kk-20" value="has" style="shape=rhombus;perimeter=rhombusPerimeter;whiteSpace=wrap;html=1;align=center;" parent="1" vertex="1">
          <mxGeometry x="1140" y="921.25" width="120" height="60" as="geometry" />
        </mxCell>
        <mxCell id="7U9PphhysYI-u7HBj0Kk-30" value="province" style="ellipse;whiteSpace=wrap;html=1;align=center;" parent="1" vertex="1">
          <mxGeometry x="-450" y="-92.5" width="50" height="30" as="geometry" />
        </mxCell>
        <mxCell id="7U9PphhysYI-u7HBj0Kk-31" value="city" style="ellipse;whiteSpace=wrap;html=1;align=center;" parent="1" vertex="1">
          <mxGeometry x="-500" y="-122.5" width="50" height="30" as="geometry" />
        </mxCell>
        <mxCell id="7U9PphhysYI-u7HBj0Kk-32" value="st. name" style="ellipse;whiteSpace=wrap;html=1;align=center;" parent="1" vertex="1">
          <mxGeometry x="-585" y="-122.5" width="50" height="30" as="geometry" />
        </mxCell>
        <mxCell id="7U9PphhysYI-u7HBj0Kk-33" value="postcode" style="ellipse;whiteSpace=wrap;html=1;align=center;" parent="1" vertex="1">
          <mxGeometry x="-450" y="-50" width="50" height="30" as="geometry" />
        </mxCell>
        <mxCell id="bQkvv9pmpDj_4s0H_Ojs-4" value="quantity" style="ellipse;whiteSpace=wrap;html=1;align=center;" parent="1" vertex="1">
          <mxGeometry x="525" y="-13.75" width="100" height="40" as="geometry" />
        </mxCell>
        <mxCell id="bQkvv9pmpDj_4s0H_Ojs-5" value="&lt;span style=&quot;border-bottom: 1px dotted&quot;&gt;productId&lt;/span&gt;" style="ellipse;whiteSpace=wrap;html=1;align=center;" parent="1" vertex="1">
          <mxGeometry x="750" y="-53.75" width="100" height="40" as="geometry" />
        </mxCell>
        <mxCell id="bQkvv9pmpDj_4s0H_Ojs-16" style="edgeStyle=orthogonalEdgeStyle;rounded=0;orthogonalLoop=1;jettySize=auto;html=1;" parent="1" source="bQkvv9pmpDj_4s0H_Ojs-8" target="bQkvv9pmpDj_4s0H_Ojs-5" edge="1">
          <mxGeometry relative="1" as="geometry" />
        </mxCell>
        <mxCell id="bQkvv9pmpDj_4s0H_Ojs-19" style="edgeStyle=orthogonalEdgeStyle;rounded=0;orthogonalLoop=1;jettySize=auto;html=1;entryX=0.187;entryY=0.842;entryDx=0;entryDy=0;entryPerimeter=0;" parent="1" source="bQkvv9pmpDj_4s0H_Ojs-8" target="bQkvv9pmpDj_4s0H_Ojs-11" edge="1">
          <mxGeometry relative="1" as="geometry">
            <Array as="points">
              <mxPoint x="740" y="36.25" />
              <mxPoint x="839" y="36.25" />
            </Array>
          </mxGeometry>
        </mxCell>
        <mxCell id="fabR9lGz_JX6HUrBcVDF-1" style="edgeStyle=orthogonalEdgeStyle;rounded=0;orthogonalLoop=1;jettySize=auto;html=1;entryX=0;entryY=0.5;entryDx=0;entryDy=0;" parent="1" source="bQkvv9pmpDj_4s0H_Ojs-8" target="M6uvEseLIlFZfIpXj4Gl-127" edge="1">
          <mxGeometry relative="1" as="geometry">
            <Array as="points">
              <mxPoint x="735" y="136.25" />
            </Array>
          </mxGeometry>
        </mxCell>
        <mxCell id="bQkvv9pmpDj_4s0H_Ojs-8" value="Inventory" style="whiteSpace=wrap;html=1;align=center;" parent="1" vertex="1">
          <mxGeometry x="650" y="46.25" width="100" height="40" as="geometry" />
        </mxCell>
        <mxCell id="bQkvv9pmpDj_4s0H_Ojs-10" value="color" style="ellipse;whiteSpace=wrap;html=1;align=center;" parent="1" vertex="1">
          <mxGeometry x="625" y="-53.75" width="100" height="40" as="geometry" />
        </mxCell>
        <mxCell id="bQkvv9pmpDj_4s0H_Ojs-11" value="size" style="ellipse;whiteSpace=wrap;html=1;align=center;" parent="1" vertex="1">
          <mxGeometry x="820" y="-13.75" width="100" height="40" as="geometry" />
        </mxCell>
        <mxCell id="bQkvv9pmpDj_4s0H_Ojs-12" value="&amp;nbsp; id&amp;nbsp;&amp;nbsp;" style="ellipse;whiteSpace=wrap;html=1;align=center;fontStyle=4;" parent="1" vertex="1">
          <mxGeometry x="790" y="56.25" width="100" height="40" as="geometry" />
        </mxCell>
        <mxCell id="bQkvv9pmpDj_4s0H_Ojs-13" style="edgeStyle=orthogonalEdgeStyle;rounded=0;orthogonalLoop=1;jettySize=auto;html=1;entryX=0.58;entryY=1.05;entryDx=0;entryDy=0;entryPerimeter=0;" parent="1" source="bQkvv9pmpDj_4s0H_Ojs-8" target="bQkvv9pmpDj_4s0H_Ojs-4" edge="1">
          <mxGeometry relative="1" as="geometry" />
        </mxCell>
        <mxCell id="bQkvv9pmpDj_4s0H_Ojs-14" style="edgeStyle=orthogonalEdgeStyle;rounded=0;orthogonalLoop=1;jettySize=auto;html=1;" parent="1" source="bQkvv9pmpDj_4s0H_Ojs-8" edge="1">
          <mxGeometry relative="1" as="geometry">
            <mxPoint x="680" y="-13.75" as="targetPoint" />
            <Array as="points">
              <mxPoint x="680" y="-13.75" />
            </Array>
          </mxGeometry>
        </mxCell>
        <mxCell id="bQkvv9pmpDj_4s0H_Ojs-18" style="edgeStyle=orthogonalEdgeStyle;rounded=0;orthogonalLoop=1;jettySize=auto;html=1;entryX=0.053;entryY=0.258;entryDx=0;entryDy=0;entryPerimeter=0;" parent="1" source="bQkvv9pmpDj_4s0H_Ojs-8" target="bQkvv9pmpDj_4s0H_Ojs-12" edge="1">
          <mxGeometry relative="1" as="geometry" />
        </mxCell>
        <mxCell id="bQkvv9pmpDj_4s0H_Ojs-21" value="has" style="shape=rhombus;perimeter=rhombusPerimeter;whiteSpace=wrap;html=1;align=center;" parent="1" vertex="1">
          <mxGeometry x="430" y="106.25" width="120" height="60" as="geometry" />
        </mxCell>
        <mxCell id="bQkvv9pmpDj_4s0H_Ojs-22" value="" style="edgeStyle=orthogonalEdgeStyle;fontSize=12;html=1;endArrow=ERmandOne;rounded=0;entryX=0.5;entryY=1;entryDx=0;entryDy=0;exitX=1;exitY=0.5;exitDx=0;exitDy=0;" parent="1" source="bQkvv9pmpDj_4s0H_Ojs-21" target="bQkvv9pmpDj_4s0H_Ojs-8" edge="1">
          <mxGeometry width="100" height="100" relative="1" as="geometry">
            <mxPoint x="490" y="146.25" as="sourcePoint" />
            <mxPoint x="590" y="46.25" as="targetPoint" />
            <Array as="points">
              <mxPoint x="700" y="136.25" />
            </Array>
          </mxGeometry>
        </mxCell>
        <mxCell id="bQkvv9pmpDj_4s0H_Ojs-23" value="" style="edgeStyle=orthogonalEdgeStyle;fontSize=12;html=1;endArrow=ERmandOne;rounded=0;exitX=0.5;exitY=1;exitDx=0;exitDy=0;entryX=0.289;entryY=-0.013;entryDx=0;entryDy=0;entryPerimeter=0;" parent="1" source="bQkvv9pmpDj_4s0H_Ojs-21" target="M6uvEseLIlFZfIpXj4Gl-124" edge="1">
          <mxGeometry width="100" height="100" relative="1" as="geometry">
            <mxPoint x="425" y="276.25" as="sourcePoint" />
            <mxPoint x="620" y="606.25" as="targetPoint" />
            <Array as="points">
              <mxPoint x="490" y="166.25" />
              <mxPoint x="490" y="426.25" />
              <mxPoint x="620" y="426.25" />
            </Array>
          </mxGeometry>
        </mxCell>
        <mxCell id="bQkvv9pmpDj_4s0H_Ojs-24" style="edgeStyle=orthogonalEdgeStyle;rounded=0;orthogonalLoop=1;jettySize=auto;html=1;entryX=0.65;entryY=0;entryDx=0;entryDy=0;entryPerimeter=0;" parent="1" source="M6uvEseLIlFZfIpXj4Gl-323" target="M6uvEseLIlFZfIpXj4Gl-338" edge="1">
          <mxGeometry relative="1" as="geometry" />
        </mxCell>
        <mxCell id="bQkvv9pmpDj_4s0H_Ojs-25" value="color" style="ellipse;whiteSpace=wrap;html=1;align=center;" parent="1" vertex="1">
          <mxGeometry x="410" y="1136.25" width="100" height="40" as="geometry" />
        </mxCell>
        <mxCell id="bQkvv9pmpDj_4s0H_Ojs-26" value="size" style="ellipse;whiteSpace=wrap;html=1;align=center;" parent="1" vertex="1">
          <mxGeometry x="100" y="1266.25" width="100" height="40" as="geometry" />
        </mxCell>
        <mxCell id="bQkvv9pmpDj_4s0H_Ojs-29" value="size" style="ellipse;whiteSpace=wrap;html=1;align=center;" parent="1" vertex="1">
          <mxGeometry x="1120" y="786.25" width="100" height="40" as="geometry" />
        </mxCell>
        <mxCell id="bQkvv9pmpDj_4s0H_Ojs-30" value="color" style="ellipse;whiteSpace=wrap;html=1;align=center;" parent="1" vertex="1">
          <mxGeometry x="1130" y="736.25" width="100" height="40" as="geometry" />
        </mxCell>
        <mxCell id="bQkvv9pmpDj_4s0H_Ojs-33" style="edgeStyle=orthogonalEdgeStyle;rounded=0;orthogonalLoop=1;jettySize=auto;html=1;entryX=0.022;entryY=0.65;entryDx=0;entryDy=0;entryPerimeter=0;" parent="1" source="M6uvEseLIlFZfIpXj4Gl-240" target="bQkvv9pmpDj_4s0H_Ojs-29" edge="1">
          <mxGeometry relative="1" as="geometry">
            <Array as="points">
              <mxPoint x="1060" y="812.25" />
            </Array>
          </mxGeometry>
        </mxCell>
        <mxCell id="KbAZ3Vq-7kfFuIyyeeiP-1" style="edgeStyle=orthogonalEdgeStyle;rounded=0;orthogonalLoop=1;jettySize=auto;html=1;entryX=0.5;entryY=1;entryDx=0;entryDy=0;" parent="1" source="KbAZ3Vq-7kfFuIyyeeiP-3" target="KbAZ3Vq-7kfFuIyyeeiP-4" edge="1">
          <mxGeometry relative="1" as="geometry">
            <Array as="points">
              <mxPoint x="555" y="-161.25" />
              <mxPoint x="505" y="-161.25" />
            </Array>
          </mxGeometry>
        </mxCell>
        <mxCell id="KbAZ3Vq-7kfFuIyyeeiP-3" value="images" style="ellipse;whiteSpace=wrap;html=1;align=center;" parent="1" vertex="1">
          <mxGeometry x="535" y="-98.75" width="120" height="30" as="geometry" />
        </mxCell>
        <mxCell id="KbAZ3Vq-7kfFuIyyeeiP-4" value="alt" style="ellipse;whiteSpace=wrap;html=1;align=center;" parent="1" vertex="1">
          <mxGeometry x="455" y="-216.25" width="100" height="40" as="geometry" />
        </mxCell>
        <mxCell id="KbAZ3Vq-7kfFuIyyeeiP-6" value="image" style="ellipse;whiteSpace=wrap;html=1;align=center;" parent="1" vertex="1">
          <mxGeometry x="430" y="-156.25" width="100" height="40" as="geometry" />
        </mxCell>
        <mxCell id="KbAZ3Vq-7kfFuIyyeeiP-7" style="edgeStyle=orthogonalEdgeStyle;rounded=0;orthogonalLoop=1;jettySize=auto;html=1;entryX=0.943;entryY=0.669;entryDx=0;entryDy=0;entryPerimeter=0;" parent="1" source="KbAZ3Vq-7kfFuIyyeeiP-3" edge="1">
          <mxGeometry relative="1" as="geometry">
            <mxPoint x="479.3000000000002" y="-116.98999999999978" as="targetPoint" />
          </mxGeometry>
        </mxCell>
        <mxCell id="KbAZ3Vq-7kfFuIyyeeiP-10" style="edgeStyle=orthogonalEdgeStyle;rounded=0;orthogonalLoop=1;jettySize=auto;html=1;entryX=0.632;entryY=0.952;entryDx=0;entryDy=0;entryPerimeter=0;" parent="1" source="bQkvv9pmpDj_4s0H_Ojs-8" target="KbAZ3Vq-7kfFuIyyeeiP-3" edge="1">
          <mxGeometry relative="1" as="geometry">
            <Array as="points">
              <mxPoint x="650" y="-11.75" />
              <mxPoint x="610" y="-11.75" />
              <mxPoint x="610" y="-69.75" />
            </Array>
          </mxGeometry>
        </mxCell>
        <mxCell id="8XpuJ5NO-qgrqKW09FXx-2" value="shipping method" style="ellipse;whiteSpace=wrap;html=1;align=center;" parent="1" vertex="1">
          <mxGeometry x="1330" y="1036.25" width="100" height="40" as="geometry" />
        </mxCell>
        <mxCell id="sdjJsULYdhannJzYQ8A7-6" value="" style="edgeStyle=orthogonalEdgeStyle;fontSize=12;html=1;endArrow=ERzeroToMany;endFill=1;rounded=0;entryX=0.5;entryY=1;entryDx=0;entryDy=0;exitX=0.5;exitY=0;exitDx=0;exitDy=0;" parent="1" source="sdjJsULYdhannJzYQ8A7-8" target="M6uvEseLIlFZfIpXj4Gl-139" edge="1">
          <mxGeometry width="100" height="100" relative="1" as="geometry">
            <mxPoint x="-460" y="120" as="sourcePoint" />
            <mxPoint x="-550" y="60" as="targetPoint" />
            <Array as="points">
              <mxPoint x="-460" y="60" />
              <mxPoint x="-530" y="60" />
            </Array>
          </mxGeometry>
        </mxCell>
        <mxCell id="sdjJsULYdhannJzYQ8A7-8" value="has" style="shape=rhombus;perimeter=rhombusPerimeter;whiteSpace=wrap;html=1;align=center;" parent="1" vertex="1">
          <mxGeometry x="-520" y="120" width="120" height="60" as="geometry" />
        </mxCell>
        <mxCell id="sdjJsULYdhannJzYQ8A7-10" value="" style="edgeStyle=orthogonalEdgeStyle;fontSize=12;html=1;endArrow=ERmandOne;rounded=0;exitX=0.5;exitY=1;exitDx=0;exitDy=0;entryX=0.008;entryY=0.113;entryDx=0;entryDy=0;entryPerimeter=0;" parent="1" source="sdjJsULYdhannJzYQ8A7-8" target="M6uvEseLIlFZfIpXj4Gl-5" edge="1">
          <mxGeometry width="100" height="100" relative="1" as="geometry">
            <mxPoint x="-460" y="310" as="sourcePoint" />
            <mxPoint x="-460" y="440" as="targetPoint" />
          </mxGeometry>
        </mxCell>
        <mxCell id="sdjJsULYdhannJzYQ8A7-11" value="&amp;nbsp; id&amp;nbsp;&amp;nbsp;" style="ellipse;whiteSpace=wrap;html=1;align=center;fontStyle=4;" parent="1" vertex="1">
          <mxGeometry x="-710" y="-120" width="100" height="40" as="geometry" />
        </mxCell>
        <mxCell id="sdjJsULYdhannJzYQ8A7-12" style="edgeStyle=orthogonalEdgeStyle;rounded=0;orthogonalLoop=1;jettySize=auto;html=1;entryX=0.5;entryY=1;entryDx=0;entryDy=0;exitX=0;exitY=0.25;exitDx=0;exitDy=0;" parent="1" source="M6uvEseLIlFZfIpXj4Gl-139" target="sdjJsULYdhannJzYQ8A7-11" edge="1">
          <mxGeometry relative="1" as="geometry">
            <Array as="points">
              <mxPoint x="-660" y="-20" />
            </Array>
            <mxPoint x="-740" y="-30" as="sourcePoint" />
          </mxGeometry>
        </mxCell>
        <mxCell id="sdjJsULYdhannJzYQ8A7-13" style="edgeStyle=orthogonalEdgeStyle;rounded=0;orthogonalLoop=1;jettySize=auto;html=1;entryX=0.085;entryY=0.727;entryDx=0;entryDy=0;entryPerimeter=0;exitX=0.994;exitY=0.907;exitDx=0;exitDy=0;exitPerimeter=0;" parent="1" source="M6uvEseLIlFZfIpXj4Gl-139" target="sdjJsULYdhannJzYQ8A7-14" edge="1">
          <mxGeometry relative="1" as="geometry">
            <mxPoint x="-475" y="20" as="sourcePoint" />
          </mxGeometry>
        </mxCell>
        <mxCell id="sdjJsULYdhannJzYQ8A7-14" value="type" style="ellipse;whiteSpace=wrap;html=1;align=center;" parent="1" vertex="1">
          <mxGeometry x="-425" y="-15" width="50" height="30" as="geometry" />
        </mxCell>
        <mxCell id="sdjJsULYdhannJzYQ8A7-15" style="edgeStyle=orthogonalEdgeStyle;rounded=0;orthogonalLoop=1;jettySize=auto;html=1;entryX=0.5;entryY=1;entryDx=0;entryDy=0;exitX=0;exitY=0.25;exitDx=0;exitDy=0;" parent="1" source="7U9PphhysYI-u7HBj0Kk-3" target="sdjJsULYdhannJzYQ8A7-16" edge="1">
          <mxGeometry relative="1" as="geometry">
            <Array as="points" />
            <mxPoint x="1310" y="871.25" as="targetPoint" />
            <mxPoint x="1320" y="931.25" as="sourcePoint" />
          </mxGeometry>
        </mxCell>
        <mxCell id="sdjJsULYdhannJzYQ8A7-16" value="delivery" style="ellipse;whiteSpace=wrap;html=1;align=center;" parent="1" vertex="1">
          <mxGeometry x="1260" y="871.25" width="100" height="40" as="geometry" />
        </mxCell>
        <mxCell id="yVgPqFf_LlmDnyE8OUgT-1" value="has" style="rhombus;whiteSpace=wrap;html=1;" vertex="1" parent="1">
          <mxGeometry x="-70" y="660" width="80" height="80" as="geometry" />
        </mxCell>
        <mxCell id="yVgPqFf_LlmDnyE8OUgT-11" style="edgeStyle=orthogonalEdgeStyle;rounded=0;orthogonalLoop=1;jettySize=auto;html=1;entryX=1;entryY=0.5;entryDx=0;entryDy=0;exitX=0.002;exitY=0.82;exitDx=0;exitDy=0;exitPerimeter=0;" edge="1" parent="1" source="yVgPqFf_LlmDnyE8OUgT-2" target="yVgPqFf_LlmDnyE8OUgT-7">
          <mxGeometry relative="1" as="geometry">
            <Array as="points">
              <mxPoint x="100" y="804" />
              <mxPoint x="75" y="804" />
              <mxPoint x="75" y="851" />
            </Array>
          </mxGeometry>
        </mxCell>
        <mxCell id="yVgPqFf_LlmDnyE8OUgT-14" style="edgeStyle=orthogonalEdgeStyle;rounded=0;orthogonalLoop=1;jettySize=auto;html=1;" edge="1" parent="1" source="yVgPqFf_LlmDnyE8OUgT-2">
          <mxGeometry relative="1" as="geometry">
            <mxPoint x="155" y="900" as="targetPoint" />
          </mxGeometry>
        </mxCell>
        <mxCell id="yVgPqFf_LlmDnyE8OUgT-17" style="edgeStyle=orthogonalEdgeStyle;rounded=0;orthogonalLoop=1;jettySize=auto;html=1;entryX=0;entryY=0.5;entryDx=0;entryDy=0;" edge="1" parent="1" source="yVgPqFf_LlmDnyE8OUgT-2" target="yVgPqFf_LlmDnyE8OUgT-16">
          <mxGeometry relative="1" as="geometry" />
        </mxCell>
        <mxCell id="yVgPqFf_LlmDnyE8OUgT-2" value="Shop" style="rounded=1;whiteSpace=wrap;html=1;" vertex="1" parent="1">
          <mxGeometry x="120" y="776.25" width="80" height="33.75" as="geometry" />
        </mxCell>
        <mxCell id="yVgPqFf_LlmDnyE8OUgT-4" value="has" style="rhombus;whiteSpace=wrap;html=1;" vertex="1" parent="1">
          <mxGeometry x="282.5" y="686.25" width="80" height="80" as="geometry" />
        </mxCell>
        <mxCell id="yVgPqFf_LlmDnyE8OUgT-5" value="" style="edgeStyle=orthogonalEdgeStyle;fontSize=12;html=1;endArrow=ERmandOne;rounded=0;entryX=0.5;entryY=0;entryDx=0;entryDy=0;exitX=0;exitY=0.5;exitDx=0;exitDy=0;" edge="1" parent="1" source="yVgPqFf_LlmDnyE8OUgT-4" target="yVgPqFf_LlmDnyE8OUgT-2">
          <mxGeometry width="100" height="100" relative="1" as="geometry">
            <mxPoint x="100" y="690" as="sourcePoint" />
            <mxPoint x="200" y="590" as="targetPoint" />
          </mxGeometry>
        </mxCell>
        <mxCell id="yVgPqFf_LlmDnyE8OUgT-6" value="" style="edgeStyle=orthogonalEdgeStyle;fontSize=12;html=1;endArrow=ERmandOne;rounded=0;entryX=0;entryY=0.5;entryDx=0;entryDy=0;exitX=0.5;exitY=1;exitDx=0;exitDy=0;" edge="1" parent="1" source="yVgPqFf_LlmDnyE8OUgT-1" target="yVgPqFf_LlmDnyE8OUgT-2">
          <mxGeometry width="100" height="100" relative="1" as="geometry">
            <mxPoint x="100" y="690" as="sourcePoint" />
            <mxPoint x="200" y="590" as="targetPoint" />
          </mxGeometry>
        </mxCell>
        <mxCell id="yVgPqFf_LlmDnyE8OUgT-7" value="&amp;nbsp; id&amp;nbsp;&amp;nbsp;" style="ellipse;whiteSpace=wrap;html=1;align=center;fontStyle=4;" vertex="1" parent="1">
          <mxGeometry x="-60" y="831.25" width="100" height="40" as="geometry" />
        </mxCell>
        <mxCell id="yVgPqFf_LlmDnyE8OUgT-8" value="logo" style="ellipse;whiteSpace=wrap;html=1;align=center;" vertex="1" parent="1">
          <mxGeometry x="-10" y="896.25" width="100" height="40" as="geometry" />
        </mxCell>
        <mxCell id="yVgPqFf_LlmDnyE8OUgT-9" value="name" style="ellipse;whiteSpace=wrap;html=1;align=center;" vertex="1" parent="1">
          <mxGeometry x="100" y="910" width="100" height="40" as="geometry" />
        </mxCell>
        <mxCell id="yVgPqFf_LlmDnyE8OUgT-10" value="description" style="ellipse;whiteSpace=wrap;html=1;align=center;" vertex="1" parent="1">
          <mxGeometry x="190" y="871.25" width="100" height="40" as="geometry" />
        </mxCell>
        <mxCell id="yVgPqFf_LlmDnyE8OUgT-13" style="edgeStyle=orthogonalEdgeStyle;rounded=0;orthogonalLoop=1;jettySize=auto;html=1;entryX=0.908;entryY=0.092;entryDx=0;entryDy=0;entryPerimeter=0;exitX=0.136;exitY=1.012;exitDx=0;exitDy=0;exitPerimeter=0;" edge="1" parent="1" source="yVgPqFf_LlmDnyE8OUgT-2" target="yVgPqFf_LlmDnyE8OUgT-8">
          <mxGeometry relative="1" as="geometry">
            <Array as="points">
              <mxPoint x="131" y="820" />
              <mxPoint x="130" y="820" />
              <mxPoint x="130" y="870" />
              <mxPoint x="81" y="870" />
            </Array>
          </mxGeometry>
        </mxCell>
        <mxCell id="yVgPqFf_LlmDnyE8OUgT-15" style="edgeStyle=orthogonalEdgeStyle;rounded=0;orthogonalLoop=1;jettySize=auto;html=1;entryX=0.29;entryY=0.029;entryDx=0;entryDy=0;entryPerimeter=0;" edge="1" parent="1" source="yVgPqFf_LlmDnyE8OUgT-2" target="yVgPqFf_LlmDnyE8OUgT-10">
          <mxGeometry relative="1" as="geometry">
            <Array as="points">
              <mxPoint x="180" y="847" />
              <mxPoint x="219" y="847" />
            </Array>
          </mxGeometry>
        </mxCell>
        <mxCell id="yVgPqFf_LlmDnyE8OUgT-16" value="rating" style="ellipse;whiteSpace=wrap;html=1;align=center;" vertex="1" parent="1">
          <mxGeometry x="230" y="790" width="100" height="40" as="geometry" />
        </mxCell>
        <mxCell id="yVgPqFf_LlmDnyE8OUgT-18" value="&lt;span style=&quot;border-bottom: 1px dotted&quot;&gt;sellerId&lt;/span&gt;" style="ellipse;whiteSpace=wrap;html=1;align=center;" vertex="1" parent="1">
          <mxGeometry x="15" y="720" width="100" height="40" as="geometry" />
        </mxCell>
        <mxCell id="yVgPqFf_LlmDnyE8OUgT-19" style="edgeStyle=orthogonalEdgeStyle;rounded=0;orthogonalLoop=1;jettySize=auto;html=1;entryX=0.537;entryY=1.027;entryDx=0;entryDy=0;entryPerimeter=0;" edge="1" parent="1" source="yVgPqFf_LlmDnyE8OUgT-2" target="yVgPqFf_LlmDnyE8OUgT-18">
          <mxGeometry relative="1" as="geometry">
            <Array as="points">
              <mxPoint x="69" y="780" />
            </Array>
          </mxGeometry>
        </mxCell>
      </root>
    </mxGraphModel>
  </diagram>
</mxfile>
